<?xml version="1.0" encoding="UTF-8"?>
<svg id="Layer_1" xmlns="http://www.w3.org/2000/svg" version="1.1" xmlns:i="http://ns.adobe.com/AdobeIllustrator/10.0/" viewBox="0 0 638.2391 87.7832">
  <!-- Generator: Adobe Illustrator 29.5.1, SVG Export Plug-In . SVG Version: 2.1.0 Build 141)  -->
  <defs>
    <style>
      .st0 {
        fill: #231f20;
      }
    </style>
  </defs>
  <g>
    <path class="st0" d="M223.5833,47.5073c7.1038,0,12.8626,5.7588,12.8626,12.8626s-5.7588,12.8626-12.8626,12.8626-12.8626-5.7588-12.8626-12.8626,5.7588-12.8626,12.8626-12.8626ZM283.0143,66.1909l-3.2861,6.4313h-16.4304L235.6949,5.868l3.38-5.868h16.5243l27.4153,66.1909Z"/>
    <g>
      <path class="st0" d="M523.1326,36.2407v24.8803s-.4694.3286-.9858.5633c-10.1399,4.8822-20.7023,7.2294-31.8749,4.6944-13.6607-3.0983-22.4392-14.0362-23.0495-28.0725-.6572-14.3648,7.6049-26.9458,20.8431-31.1708,10.6093-3.38,21.1248-2.9105,31.2177,2.2533.9389.5164,1.7369,1.0797,1.9247,1.2205v14.271c-1.7369-1.0797-3.0514-1.8778-4.3658-2.6758-6.9947-4.0372-14.5057-5.4455-22.3453-3.38-8.9663,2.3003-14.1301,10.2338-13.426,19.9981.6103,8.3091,6.8538,14.5057,15.7262,15.6793,3.9433.5164,7.7927.4225,11.5482-.9389,1.1736-.4225,1.7369-.798,1.7369-.798v-8.3091h-9.248l-3.9902-7.1824v-4.4127h24.4108l1.8778,3.38Z"/>
      <polygon class="st0" points="351.928 57.8349 351.928 66.5196 313.481 66.5196 311.5563 62.9988 311.5563 6.0558 323.2453 6.0558 325.17 9.4827 325.17 54.5958 350.0972 54.5958 351.928 57.8349"/>
      <path class="st0" d="M586.1313,9.4827v33.4241c0,1.9247-.2347,3.8963-.6572,5.821-2.2064,10.046-9.9991,17.0406-20.3737,18.449-5.3047.7042-10.5155.4225-15.4446-1.5961-9.5296-3.8494-14.9282-12.7218-14.9282-21.3595V6.0558h11.6421l1.8778,3.38v32.7199c.2347,8.5907,6.2905,13.6137,14.6465,12.2993,5.6333-.8919,9.7174-5.9619,9.7174-12.3932V6.0558h11.6421l1.8778,3.4269Z"/>
      <polygon class="st0" points="463.326 61.7313 460.6971 66.5196 450.4634 66.5196 446.7548 54.9244 433.4696 54.9244 429.01 46.9909 430.1836 43.3293 443.0462 43.3293 436.8496 23.9883 433.986 23.9883 420.3723 66.5196 410.1385 66.5196 407.5097 61.7313 426.4281 6.0558 444.4076 6.0558 463.326 61.7313"/>
      <path class="st0" d="M399.1067,33.7527v8.2152h-19.3878l-3.9902-7.1824v-4.4127h21.5003l1.8778,3.38ZM400.6089,9.2949l-1.7839-3.2391h-38.5879v56.943l1.9717,3.4738h38.4001v-8.6846l-1.7839-3.2391h-24.9742V17.9326h26.758v-8.6377Z"/>
      <path class="st0" d="M636.7369,33.7527v8.2152h-19.3878l-3.9902-7.1824v-4.4127h21.5003l1.8778,3.38ZM638.2391,9.2949l-1.7839-3.2391h-38.5879v56.943l1.9717,3.4738h38.4001v-8.6846l-1.7839-3.2391h-24.9742V17.9326h26.758v-8.6377Z"/>
    </g>
  </g>
  <g>
    <path class="st0" d="M45.9228,8.6788l-10.8184-1.4527v34.6685L9.1777,3.2695,0,1.4494v71.7639l11.5875-2.0594V29.7003l26.8153,37.027,7.5199-.7947V8.6788ZM13.0231,32.9732v39.6163l-12.237,2.2389,1.692,1.6065,12.442-2.256v-38.4028l-1.8971-2.8029ZM47.4866,67.4025l-8.3915.9144,1.2134,1.7433,9.0752-.94V10.6955l-1.8971-1.3245v58.0315Z"/>
    <path class="st0" d="M56.895,9.9606v54.5279l9.0495-1.1023V11.0629l-9.0495-1.1024ZM67.5083,64.8559l-10.2715,1.2391,1.4783,1.7005,10.6988-1.2562V12.6694l-1.9056-1.7347v53.9212Z"/>
    <path class="st0" d="M114.4138,59.5835V15.1818l-9.5964-.7947v26.8495l-21.2181-28.4304-7.1867-.6324v50.4176l9.5793-1.1109v-29.4815l20.825,28.063,7.5968-.4785ZM117.8832,17.1814l-1.9056-2.1962v46.1108l-8.9641.5213,1.4613,1.8202,9.4084-.5554V17.1814ZM87.4361,62.9589l-11.1602,1.1793,1.4954,1.6834,11.5619-1.1707v-26.465l-1.8971-3.0678v27.8408Z"/>
    <path class="st0" d="M129.4109,75.9564c2.8821-8.8679,4.3247-18.1404,4.2727-27.4648V15.9765l-10.1519-.4785v32.9509c0,22.2948-8.0583,36.8732-8.0583,36.8732l13.9375-9.3657ZM135.2047,49.0556c.0721,9.4529-1.3881,18.855-4.324,27.8408l-.1025.2735-14.9971,10.0323,2.6149.5811,13.9546-9.3999.3162-.8545c.1794-.4871,4.4436-12.0746,4.4436-28.5073v-31.1735l-1.8971-2.0253-.0086,33.2329Z"/>
    <path class="st0" d="M168.13,42.1168h-11.8353l5.9818-15.2706,5.8536,15.2706ZM156.6365,16.925l-17.1847,41.539,11.3568-.47,2.7345-7.5199h17.3642l2.5636,6.6141h10.7672l-16.1507-39.8897-11.4508-.2734ZM163.618,32.7425l-.7264-3.0763-4.7427,12.143h2.068l3.401-9.0666ZM151.9536,59.5407l-12.6301.4871.6409,1.9227,13.3393-.564,3.4011-9.3657h-2.0167l-2.7345,7.5199ZM169.3605,16.9079l16.9284,41.7441-12.1942.0513,1.0596,1.8714,13.9546-.0171-17.0565-42.0688-2.6918-1.5809Z"/>
  </g>

</svg>