<?xml version="1.0" encoding="utf-8"?>
<!-- Generator: Adobe Illustrator 25.4.1, SVG Export Plug-In . SVG Version: 6.00 Build 0)  -->
<svg version="1.1" id="Layer_1" xmlns="http://www.w3.org/2000/svg" xmlns:xlink="http://www.w3.org/1999/xlink" x="0px" y="0px"
	 viewBox="0 0 530.9 846.4" style="enable-background:new 0 0 530.9 846.4;" xml:space="preserve">
<style type="text/css">
	.st0{fill:#FF434E;}
</style>
<g>
	<circle class="st0" cx="94.5" cy="443.3" r="94.5"/>
	<polygon class="st0" points="530.9,486.1 506.8,533.3 386.1,533.3 183.4,43.1 208.2,0 329.6,0 	"/>
</g>
<g>
	<path class="st0" d="M335.8,665.7v33.4c0,0,0,2.3,0,2.9c0,0-0.7,0.5-1.4,0.8c-14.8,7.1-30.2,10.5-46.5,6.8
		c-19.9-4.5-32.7-20.5-33.6-40.9c-1-20.9,11.1-39.3,30.4-45.4c15.5-4.9,30.8-4.2,45.5,3.3c1.4,0.8,2.5,1.6,2.8,1.8v20.8
		c-2.5-1.6-4.4-2.7-6.4-3.9c-10.2-5.9-21.2-7.9-32.6-4.9c-13.1,3.4-20.6,14.9-19.6,29.2c0.9,12.1,10,21.2,22.9,22.9
		c5.7,0.8,11.4,0.6,16.8-1.4c1.7-0.6,2.5-1.2,2.5-1.2v-12.1h-13.5l-5.8-10.5v-6.4H333L335.8,665.7z"/>
	<polygon class="st0" points="86.1,697.2 86.1,709.9 30.1,709.9 27.3,704.7 27.3,621.7 44.3,621.7 47.1,626.7 47.1,692.5 
		83.5,692.5 	"/>
	<path class="st0" d="M427.6,626.7v48.7c0,2.8-0.3,5.7-1,8.5c-3.2,14.6-14.6,24.8-29.7,26.9c-7.7,1-15.3,0.6-22.5-2.3
		c-13.9-5.6-21.8-18.5-21.8-31.1v-55.6h17l2.7,4.9v47.7c0.3,12.5,9.2,19.9,21.4,17.9c8.2-1.3,14.2-8.7,14.2-18.1v-52.5h17
		L427.6,626.7z"/>
	<polygon class="st0" points="248.6,702.9 244.7,709.9 229.8,709.9 224.4,693 205,693 198.5,681.4 200.2,676.1 219,676.1 210,647.9 
		205.8,647.9 185.9,709.9 171,709.9 167.2,702.9 194.8,621.7 221,621.7 	"/>
	<path class="st0" d="M154.9,662.1v12h-28.3l-5.8-10.5v-6.4h31.3L154.9,662.1z M157.1,626.4l-2.6-4.7H98.3v83l2.9,5.1h56v-12.7
		l-2.6-4.7h-36.4V639h39V626.4z"/>
	<path class="st0" d="M501.4,662.1v12h-28.3l-5.8-10.5v-6.4h31.3L501.4,662.1z M503.6,626.4l-2.6-4.7h-56.3v83l2.9,5.1h56v-12.7
		l-2.6-4.7h-36.4V639h39V626.4z"/>
</g>
<g>
	<path class="st0" d="M179.9,775.4h-21.1v66.9l2.3,4.1h10.8v-55.5l17.7,48h15.1l17.7-48c0,0,0,51.4,0,51.4l2.3,4.1h10.8v-67.2
		l-2.1-3.8h-19.5l-16.7,49L179.9,775.4z"/>
	<path class="st0" d="M263.5,786.9V835h31.9l2.3,4.1v7.3h-45l-2.3-4.1v-66.9h45l2.3,4.1v7.3H263.5z M270.3,805.4v7l2.3,4.1h21.8v-7
		l-2.3-4.1H270.3z"/>
	<polygon class="st0" points="353.2,846.4 372.1,846.4 372.1,779.5 369.8,775.4 359,775.4 359,828.5 331.5,775.4 312.6,775.4 
		312.6,842.4 314.9,846.4 325.7,846.4 325.7,793.4 	"/>
</g>
</svg>
