<?xml version="1.0" encoding="utf-8"?>
<!-- Generator: Adobe Illustrator 25.4.1, SVG Export Plug-In . SVG Version: 6.00 Build 0)  -->
<svg version="1.1" id="Layer_1" xmlns="http://www.w3.org/2000/svg" xmlns:xlink="http://www.w3.org/1999/xlink" x="0px" y="0px"
	 viewBox="0 0 2097.5 235" style="enable-background:new 0 0 2097.5 235;" xml:space="preserve">
<style type="text/css">
	.st0{fill:#231F20;}
	.st1{fill:#ED1C24;}
	.st2{fill:#6D6E71;}
</style>
<g>
	<g>
		<circle class="st0" cx="766.7" cy="193.8" r="41.3"/>
		<polygon class="st0" points="957.4,212.4 946.9,233.1 894.1,233.1 805.6,18.8 816.4,0 869.4,0 		"/>
	</g>
	<g>
		<path class="st0" d="M1728.1,116.3v73.5c0,0,0,5.1,0,6.3c0,0-1.5,1.1-3.2,1.8c-32.5,15.7-66.4,23.2-102.3,15.1
			c-43.8-9.9-72-45-74-90.1c-2.1-46.1,24.4-86.5,66.9-100c34.1-10.8,67.8-9.3,100.2,7.2c3,1.7,5.6,3.5,6.2,3.9v45.8
			c-5.6-3.5-9.8-6-14-8.6c-22.4-13-46.6-17.5-71.7-10.8c-28.8,7.4-45.4,32.8-43.1,64.2c2,26.7,22,46.6,50.5,50.3
			c12.7,1.7,25,1.4,37.1-3c3.8-1.4,5.6-2.6,5.6-2.6v-26.7h-29.7l-12.8-23.1v-14.2h78.3L1728.1,116.3z"/>
		<polygon class="st0" points="1178.6,185.6 1178.6,213.5 1055.2,213.5 1049,202.2 1049,19.4 1086.6,19.4 1092.7,30.4 1092.7,175.2 
			1172.7,175.2 		"/>
		<path class="st0" d="M1930.3,30.4v107.3c0,6.2-0.8,12.5-2.1,18.7c-7.1,32.2-32.1,54.7-65.4,59.2c-17,2.3-33.7,1.4-49.6-5.1
			c-30.6-12.4-47.9-40.8-47.9-68.6V19.4h37.4l6,10.8v105c0.8,27.6,20.2,43.7,47,39.5c18.1-2.9,31.2-19.1,31.2-39.8V19.4h37.4
			L1930.3,30.4z"/>
		<polygon class="st0" points="1536.1,198.1 1527.7,213.5 1494.9,213.5 1483,176.3 1440.3,176.3 1426,150.8 1429.8,139.1 
			1471.1,139.1 1451.2,77 1442,77 1398.3,213.5 1365.4,213.5 1357,198.1 1417.7,19.4 1475.4,19.4 		"/>
		<path class="st0" d="M1330,108.3v26.4h-62.2l-12.8-23.1V97.5h69L1330,108.3z M1334.9,29.8l-5.7-10.4h-123.8v182.8l6.3,11.1h123.2
			v-27.9l-5.7-10.4H1249V57.6h85.9V29.8z"/>
		<path class="st0" d="M2092.7,108.3v26.4h-62.2l-12.8-23.1V97.5h69L2092.7,108.3z M2097.5,29.8l-5.7-10.4H1968v182.8l6.3,11.1
			h123.2v-27.9l-5.7-10.4h-80.2V57.6h85.9V29.8z"/>
	</g>
</g>
<g>
	<path id="path11" class="st1" d="M286.8,113.6c2.3,0,16.5,0,28-0.8c13.8-1,21-5.7,26.2-12.5c6.5-8.4,6.5-24.2,6.5-36.5
		c0-13.7,0.3-53.5,0.2-57.1s-1.4-5.4-5.5-5.4s-15.5,0-19.5,0l-7-0.1c-4.1-0.1-5.4,1.8-5.5,5.4v3.8c0.1,4.2-0.1,44.3-0.1,53.8v4.2
		c-0.1,8.6-1.2,17.1-13.5,18.4c-5.3,0.5-7.7,0.8-14.2,0.8c-6.6,0-9-0.3-14.3-0.8c-12.3-1.3-13-9.8-13.1-18.4v-4.2
		c0-9.4-0.1-49.5,0-53.8V6.6c-0.1-3.6-1.4-5.4-5.5-5.4l-7,0.1c-4-0.1-15.4,0-19.5-0.1c-4.1-0.1-5.4,1.8-5.5,5.4s0,43.3-0.1,57.1
		c0,12.3-0.1,28.1,6.4,36.5c5.2,6.8,12.2,11.5,26.1,12.5c11.5,0.8,25.2,0.9,28.3,0.9L286.8,113.6L286.8,113.6z M37.8,108.2
		c-0.1,3.9-1.3,5.4-5.2,5.5c-4,0.1-23.4,0-26.9,0c-3.5-0.1-5.7-1.1-5.7-4.9C0.1,105,0.2,10.2,0.2,6.6s1.7-5.3,5.4-5.2
		c3.7,0.1,22.8-0.1,27.9,0c3.8,0,4.7,2.2,4.7,6.1C38.2,12.8,38,104.4,37.8,108.2 M566.9,70.4c0.1,8.9,2.2,14.9,12.4,16.5
		c8.2,0.9,19.2,1,27.7,0.2c7.8-0.8,13.8-4,14.1-12.8c0.4-7.4,0.4-8.7,0.5-16.5c0.1-19-0.1-46.6-0.1-49.3l0.1-1.1
		c-0.1-4.2,1.9-6,5.4-6l2.1-0.1c4.1,0.1,20.4,0.1,24.3,0.1c3.6,0,5.5,1.8,5.4,6l-0.1,1.3c0.1,4-0.1,46-0.1,58.4
		c-0.2,6.3-0.7,20.8-5.5,30c-4.2,8-11.7,14.1-24.4,15.4c-24.4,2.4-46.7,1.4-63.9,0.7c-12.8-0.7-20.9-3.5-27.8-11.1
		c-7.7-8.7-8.1-23.5-8-40.6c-0.1-37.6-0.2-48.4-0.1-52V7.3c-0.1-4.2,1.9-6,5.4-6l2.1-0.1c4.1,0.1,21,0.1,25,0.1c3.6,0,5.5,1.8,5.4,6
		s-0.1,52.4-0.1,62.9 M376.8,1.3c3.8-0.1,72.1,0,93.4,0.2c18.9,0.2,25.9,2.9,31,9.8c5.9,7.9,6.5,17.9,1.8,26
		c-3.4,5.9-9.8,11-19.3,15.6c-7.6,3.9-20.8,9.7-33.7,15.4c-17.3,7.6-33,14.3-35.7,15.6c-3.6,1.8-2.2,4.7,0.6,4.6
		c7.4-0.1,78.9-0.6,82.7-0.6s5.1,1.4,5.1,5.5c0,4.3,0.1,11.7,0.1,15c-0.1,4-1.4,5.1-5.1,5.1c-4.3,0.1-80.5,0-85.9,0
		c-12.1,0-24.4,0-31.8-3.6c-9.2-4.5-12.4-13.5-12.4-19.8c0.5-15.3,9-20.3,24.5-27.4c17.1-7.8,67.8-29.6,70.9-31
		c3.8-1.7,2.6-5.1-0.9-5.1c-2.6,0.1-80.2,0.4-84.1,0.4c-3.8,0-6.3-0.7-6.3-4.4s-0.1-12.9,0-16.7C371.4,2.2,373,1.5,376.8,1.3
		 M176.4,59c-17.2-7.1-67.2-23.1-73.9-26.4c-3.2-1.4-3-5.5,1.3-5.5c7.4,0.1,80.8,0.3,84.7,0.4c3.8,0,5.5-1.4,5.5-5.6
		c0-4.3,0-12.2,0-15.7c-0.1-3.6-1.3-4.9-4.5-4.9s-87.9,0-87.9,0C77.9,1.2,71.9,4.7,65.2,12.7c-8.8,10.5-6,24.7-1,32.1
		c5.7,8.2,14.9,11.9,29.8,17c18,5.9,60.3,20.8,60.3,20.8c3.9,1.7,3.6,5.7-1.2,5.7c0,0-80.8-0.8-84.6-0.8c-3.8,0-5.7,1.8-5.7,5.6
		c0,3.7-0.1,10.5-0.1,14.4c0,3.8,1.1,6,4.9,6.1s73.3-0.1,94.6-0.1c16.3,0,32-5,35.2-23C199.2,75.1,192.6,65.6,176.4,59"/>
	<g>
		<path class="st2" d="M254.9,155.3v53.3c0,13.9-26,25.2-58.1,25.2s-58.1-11.3-58.1-25.2v-53.3h33.5v53.3c0,5.9,11,10.7,24.6,10.7
			s24.6-4.8,24.6-10.7v-53.3H254.9z"/>
		<polygon class="st2" points="269.9,155.5 269.9,170 311.7,170 311.7,232.8 345.2,232.8 345.2,170 386.9,170 386.9,155.5 		"/>
		<polygon class="st2" points="520.1,170 520.1,155.5 403.3,155.5 403.3,232.8 520.1,232.8 520.1,218.3 436.8,218.3 436.8,201.4 
			520.1,201.4 520.1,186.9 436.8,186.9 436.8,170 		"/>
	</g>
</g>
</svg>
