<?xml version="1.0" encoding="UTF-8" standalone="no"?>
<svg
   xmlns:dc="http://purl.org/dc/elements/1.1/"
   xmlns:cc="http://creativecommons.org/ns#"
   xmlns:rdf="http://www.w3.org/1999/02/22-rdf-syntax-ns#"
   xmlns:svg="http://www.w3.org/2000/svg"
   xmlns="http://www.w3.org/2000/svg"
   xmlns:sodipodi="http://sodipodi.sourceforge.net/DTD/sodipodi-0.dtd"
   xmlns:inkscape="http://www.inkscape.org/namespaces/inkscape"
   viewBox="0 0 562.15194 302.09949"
   version="1.1"
   id="svg29917"
   sodipodi:docname="MLB_2019.svg"
   width="562.15192"
   height="302.09949"
   inkscape:version="1.0.2-2 (e86c870879, 2021-01-15)">
  <metadata
     id="metadata29923">
    <rdf:RDF>
      <cc:Work
         rdf:about="">
        <dc:format>image/svg+xml</dc:format>
        <dc:type
           rdf:resource="http://purl.org/dc/dcmitype/StillImage" />
      </cc:Work>
    </rdf:RDF>
  </metadata>
  <defs
     id="defs29921">
        
    
            
            
            
            
        
                
            
                
            
                
            
                
            </defs>
  <sodipodi:namedview
     pagecolor="#ffffff"
     bordercolor="#666666"
     borderopacity="1"
     objecttolerance="10"
     gridtolerance="10"
     guidetolerance="10"
     inkscape:pageopacity="0"
     inkscape:pageshadow="2"
     inkscape:window-width="1366"
     inkscape:window-height="705"
     id="namedview29919"
     showgrid="false"
     inkscape:zoom="1"
     inkscape:cx="309.87304"
     inkscape:cy="144.06602"
     inkscape:window-x="-8"
     inkscape:window-y="-8"
     inkscape:window-maximized="1"
     inkscape:current-layer="layer2"
     inkscape:document-rotation="0"
     inkscape:snap-bbox="false"
     inkscape:bbox-paths="false"
     inkscape:bbox-nodes="true"
     inkscape:snap-nodes="true"
     showguides="true"
     inkscape:guide-bbox="true" />
  <g
     inkscape:groupmode="layer"
     id="layer2"
     inkscape:label="Layer 1"
     transform="translate(6.55924e-6,-354.00276)">
    <g
       id="g17930">
      <path
         d="m 45.904682,354.00276 c -25.33542,0 -45.90468855924,20.56185 -45.90468855924,45.89727 v 210.31885 c 0,25.33913 20.56926855924,45.88336 45.90468855924,45.88336 H 516.24255 c 25.36509,0 45.90933,-20.54423 45.90933,-45.88336 V 399.90003 c 0,-25.33542 -20.54424,-45.89727 -45.90933,-45.89727 z"
         style="clip-rule:evenodd;fill:#ffffff;fill-rule:nonzero;stroke:none;stroke-width:0.927087;stroke-linejoin:round;stroke-miterlimit:1.41421"
         id="path17241"
         sodipodi:nodetypes="ccccccccc" />
      <path
         d="M 546.86422,610.21146 V 399.89307 c 0,-8.18803 -3.18198,-15.85014 -8.96493,-21.61966 -5.79638,-5.78292 -13.46129,-8.96678 -21.64747,-8.96678 H 384.78169 l 75.6039,126.21403 6.93461,0.85107 4.02355,5.79429 v 5.44292 l 4.90429,0.89093 4.33877,6.04461 0.0278,5.19261 4.87647,0.86219 4.90429,5.46795 v 11.82036 c 0,0 10.64397,9.77912 20.20122,13.51877 6.6204,2.59049 7.49827,13.22004 11.24556,19.00528 5.21771,8.05534 12.00231,11.49787 10.67076,16.14057 -3.54525,12.3612 -16.06436,34.40625 -27.96093,34.41548 l -46.6788,0.0362 0.0278,19.82618 58.35083,-2e-5 c 16.88226,-10e-6 30.61241,-13.79382 30.61241,-30.61859 z"
         style="clip-rule:evenodd;fill:#bf0d3e;fill-opacity:1;fill-rule:nonzero;stroke:none;stroke-width:0.927087;stroke-linejoin:round;stroke-miterlimit:1.41421"
         id="path17244"
         sodipodi:nodetypes="ccccccccccccccccccccccc" />
      <path
         id="path17247"
         style="clip-rule:evenodd;fill:#041e42;fill-opacity:1;fill-rule:nonzero;stroke:none;stroke-width:0.927087;stroke-linejoin:round;stroke-miterlimit:1.41421"
         d="m 45.908199,369.30663 c -8.188028,0 -15.851929,3.20795 -21.626953,8.9668 -5.809865,5.79359 -8.984375,13.46021 -8.984375,21.64453 v 210.30078 c 0,8.18803 3.187457,15.86776 8.984375,21.64844 5.788042,5.77183 13.438925,8.96289 21.626953,8.96289 H 236.91211 c -4.82085,-7.98871 -10.18083,-17.06716 -11.8125,-19.82617 H 202.3125 c -0.0371,-56.46235 19.20594,-88.06101 42.05273,-93.95118 3.09045,-0.79675 1.67785,-16.12334 -2.3457,-20.74023 0,0 -10.95991,0.33082 -13.26562,-0.31445 -2.89601,-0.81047 -0.88086,-3.70899 -0.88086,-3.70899 l 10.66992,-23.05664 -1.42774,-6.36133 -39.51171,0.0312 c -0.57479,0 32.57812,-22.77343 32.57812,-22.77343 1.6873,-59.90926 63.07192,-64.59441 100.19922,-39.82813 21.98378,14.66459 23.70584,43.51204 22,63.6836 -0.28739,1.16906 -5.79492,0.31445 -5.79492,0.31445 0,0 -3.7085,21.88086 6.07226,21.88086 h 43.19336 c 17.6154,0 34.60742,11.18945 34.60742,11.18945 l 4.33985,-14.98042 -94.83203,-123.08203 z m 32.623047,186.16602 c 11.581129,-0.0288 21.050781,9.44952 21.050781,21.00195 0,11.64327 -9.410828,21.06708 -21.02539,21.08008 -11.609898,0.013 -20.983207,-9.40808 -20.998047,-21.02539 -0.01483,-11.60715 9.387676,-21.02789 20.972656,-21.05664 z"
         sodipodi:nodetypes="ccccccccccccccccccccccccccccccc" />
    </g>
  </g>
</svg>
