<?xml version="1.0" encoding="utf-8"?>
<!-- Generator: Adobe Illustrator 27.2.0, SVG Export Plug-In . SVG Version: 6.00 Build 0)  -->
<svg version="1.1" id="Layer_1" xmlns="http://www.w3.org/2000/svg" xmlns:xlink="http://www.w3.org/1999/xlink" x="0px" y="0px"
	 viewBox="0 0 1346.1 427.3" style="enable-background:new 0 0 1346.1 427.3;" xml:space="preserve">
<style type="text/css">
	.st0{fill:#00FEFE;}
	.st1{fill:#FFFFFF;}
	.st2{fill:#0220D0;}
	
		.st3{clip-path:url(#SVGID_00000003089978025686153570000003991671309515682475_);fill:url(#SVGID_00000053526470287098772040000011056846148392953748_);}
	
		.st4{clip-path:url(#SVGID_00000114072672165188899250000001635505851595649178_);fill:url(#SVGID_00000101823508621713755720000011533620713239672719_);}
	
		.st5{clip-path:url(#SVGID_00000131333620855104597510000012638351202650867878_);fill:url(#SVGID_00000160903769509003038800000012316359687815418528_);}
	.st6{fill:#01C4FD;}
	
		.st7{clip-path:url(#SVGID_00000171707675767933087630000008760400954333523595_);fill:url(#SVGID_00000182524538287778892660000013495331027028064184_);}
</style>
<g>
	<path class="st0" d="M1296.9,5.5l-3.3-5.5H52.5l-3.3,5.5C34.4,30,0,99.2,0,213.7s34.4,183.7,49.2,208.1l3.3,5.5h1241.1l3.3-5.5
		c14.8-24.5,49.2-93.7,49.2-208.1C1346.2,99.3,1311.7,30,1296.9,5.5z"/>
	<path class="st1" d="M1285.5,412.9H60.6C46,388.3,14.4,322.3,14.4,213.7S46,39,60.6,14.4h1224.9c14.6,24.6,46.3,90.7,46.3,199.2
		S1300.1,388.2,1285.5,412.9z"/>
</g>
<g>
	<g>
		<path class="st2" d="M684.7,186.8h-54.3l-46.5,158.1h46.3l4.8-21.3h45.3l4.8,21.3h46.2L684.7,186.8z M643.5,285.5l14.2-59.5
			l14,59.5H643.5z"/>
		<path class="st2" d="M822.6,285.7l37,15.4c-6.9,20.2-22.5,46.7-60,46.7c-43.8,0-71.8-33.4-71.8-81.8c0-48.6,28-81.8,71.8-81.8
			c37,0,52.4,24.6,60,45l-37.2,15.7c-3.1-12.3-10.9-21.1-22.8-21.1c-16.6,0-26,17.5-26,42.2s9.5,42.2,26,42.2
			C811.7,308.2,819.8,298,822.6,285.7"/>
		<rect x="871.9" y="186.8" class="st2" width="44.8" height="158.1"/>
		<polygon class="st2" points="979.1,225 979.1,245.9 1032.4,245.9 1032.4,284 979.1,284 979.1,345 934.3,345 934.3,186.8 
			1034.1,186.8 1034.1,225 		"/>
		<rect x="1049.3" y="186.8" class="st2" width="44.8" height="158.1"/>
		<path class="st2" d="M1204.4,285.7l37,15.4c-6.9,20.2-22.5,46.7-60,46.7c-43.9,0-71.8-33.4-71.8-81.8c0-48.6,28-81.8,71.8-81.8
			c37,0,52.4,24.6,60,45l-37.3,15.7c-3.1-12.3-10.9-21.1-22.7-21.1c-16.6,0-26.1,17.5-26.1,42.2s9.5,42.2,26.1,42.2
			C1193.5,308.2,1201.6,298,1204.4,285.7"/>
		<polygon class="st2" points="1241.2,81.2 1215.3,131.6 1215.3,165.3 1191.4,165.3 1191.4,131.6 1165.2,81.2 1191.4,81.2 
			1203.3,109.9 1215.2,81.2 		"/>
		<path class="st2" d="M1149.2,121.9c8.1-1.9,14-8.9,14-19.3c0-10.2-6.7-21.5-23.6-21.5h-41.8v84.2h43.3c16.6,0,23.5-10.9,23.5-22.8
			C1164.5,131.7,1158,123.3,1149.2,121.9 M1121.6,100.6h11.9c3.3,0,5.4,2.6,5.4,6.1c0,3.6-2.2,6.3-5.4,6.3h-11.9V100.6z
			 M1134.2,145.9h-12.5v-13.5h12.5c3.8,0,6.2,3.1,6.2,6.8C1140.3,143.1,1137.9,145.9,1134.2,145.9"/>
		<path class="st2" d="M1087,116.4v35.8c-8.1,9-18.1,14.6-32.1,14.6c-23.3,0-38.6-17.3-38.6-43.5c0-26.5,15.4-43.5,38.6-43.5
			c16.6,0,26.5,10.2,30.9,22.1l-19.6,8.7c-1.8-5.3-5.6-9.7-11.4-9.7c-8.2,0-14.3,6.8-14.3,22.4c0,15.5,6.1,22.4,14.3,22.4
			c4.2,0,7.6-1.1,10-3.1v-6.1h-12v-20.2C1052.9,116.4,1087,116.4,1087,116.4z"/>
		<path class="st2" d="M1006.4,81.2v53.3c0,20.4-13.2,32.4-34.3,32.4c-21.2,0-34.4-12-34.4-32.3V81.2h24.1v53.5
			c0,6.9,3.2,11.2,10.3,11.2c7,0,10.2-4.3,10.2-11.2V81.2H1006.4z"/>
		<path class="st2" d="M916,133.6c5.6-3.1,12.6-10.4,12.6-24.5c0-15.5-10.8-28-28.3-28h-37.1v84.1H887v-27.4h6.1l9.5,27.5h26.3
			L916,133.6z M896.5,117.5H887v-16h9.5c4.3,0,7.8,2.9,7.8,7.9S900.8,117.5,896.5,117.5"/>
		<path class="st2" d="M812.6,133.6c5.6-3.1,12.6-10.4,12.6-24.5c0-15.5-10.8-28-28.3-28h-37.1v84.1h23.8v-27.4h6.1l9.5,27.5h26.3
			L812.6,133.6z M793.2,117.5h-9.5v-16h9.5c4.3,0,7.8,2.9,7.8,7.9S797.5,117.5,793.2,117.5"/>
		<polygon class="st2" points="720,101.5 720,112.6 748.4,112.6 748.4,132.9 720,132.9 720,145 749.3,145 749.3,165.3 696.2,165.3 
			696.2,81.1 749.3,81.1 749.3,101.5 		"/>
		<path class="st2" d="M659.2,81.2h-36.5v84.1h23.8v-27.5h12.7c19.3,0,28.9-13,28.9-28.1C688.1,94.4,678.5,81.2,659.2,81.2
			 M656.3,117.5h-9.7v-16h9.7c4.4,0,7.6,3,7.6,7.9C663.9,114.5,660.7,117.5,656.3,117.5"/>
		<path class="st2" d="M611.2,81.2v53.3c0,20.4-13.2,32.4-34.3,32.4c-21.2,0-34.5-12-34.5-32.3V81.2h24.1v53.5
			c0,6.9,3.2,11.2,10.3,11.2c7,0,10.2-4.3,10.2-11.2V81.2H611.2z"/>
		<path class="st2" d="M533.1,138.8c0,17.1-12.1,28-31.7,28c-14.5,0-24.6-4.2-32.2-11.2l11.1-18.2c5,5.3,12.7,8.8,20.7,8.8
			c4.5,0,7.9-2,7.9-5.2c0-3.6-3.8-5.6-10.5-7.8c-10.8-3.5-26.7-7.9-26.7-26.7c0-13.8,10.6-26.8,31.3-26.8c11.1,0,21.2,3.4,28.6,9.7
			l-10.8,17.7c-5.6-4.7-12.4-6.8-17.8-6.8c-5.3,0-6.9,2.3-6.9,4.8c0,3.5,3.6,5.3,10.7,7.6C517.7,116.2,533.1,121.3,533.1,138.8"/>
		<path class="st2" d="M541.5,186.8H473V345h44.8v-51.7h23.7c36.3,0,54.3-24.4,54.3-52.9C595.8,211.7,577.8,186.8,541.5,186.8
			 M536,255.1h-18.2V225H536c8.3,0,14.3,5.7,14.3,14.9C550.3,249.4,544.3,255.1,536,255.1"/>
	</g>
	<g>
		<g>
			<g>
				<g>
					<g>
						<g>
							<g>
								<defs>
									<path id="SVGID_1_" d="M119.9,97.3c-11.2,14.3-8.2,28.7,8.3,38.6c15.6,9.4,43.3,16.6,74.2,22.9
										c11.2-21.2,28.8-34.8,48.6-34.8c20.4,0,38.4,14.4,49.6,36.7h87.5V91.6c0,0-49-30.9-139.8-30.9
										C175.6,60.7,138.1,75.2,119.9,97.3"/>
								</defs>
								<clipPath id="SVGID_00000078040491742287129470000003780026997268893596_">
									<use xlink:href="#SVGID_1_"  style="overflow:visible;"/>
								</clipPath>
								
									<linearGradient id="SVGID_00000050624173243770712340000004711570376308485036_" gradientUnits="userSpaceOnUse" x1="2479.9431" y1="-40.6257" x2="2489.9431" y2="-40.6257" gradientTransform="matrix(-19.0042 6.2035 -6.2035 -19.0042 47241.4492 -16083.5156)">
									<stop  offset="0" style="stop-color:#16F8F7"/>
									<stop  offset="1" style="stop-color:#1902E7"/>
								</linearGradient>
								
									<polygon style="clip-path:url(#SVGID_00000078040491742287129470000003780026997268893596_);fill:url(#SVGID_00000050624173243770712340000004711570376308485036_);" points="
									417.6,151 135.6,243.1 79.2,70.3 361.2,-21.8 								"/>
							</g>
						</g>
					</g>
				</g>
			</g>
		</g>
		<g>
			<g>
				<g>
					<g>
						<g>
							<g>
								<defs>
									<path id="SVGID_00000008132553791300038680000009254451660976373942_" d="M110.7,256.7v79c0,0,45.5,30.9,139.8,30.9
										c58,0,94.9-10.7,117.6-27.5c0,0,0.1-0.1,0.2-0.1c10.1-7.6,11.5-16.3,11.5-21.2c0-21.4-30.8-41.3-77.3-55.5
										c-11,24.4-29.9,40.5-51.4,40.5c-23.1,0-43.2-18.6-53.7-46L110.7,256.7L110.7,256.7z"/>
								</defs>
								<clipPath id="SVGID_00000088127903843391284410000015695546786351071120_">
									<use xlink:href="#SVGID_00000008132553791300038680000009254451660976373942_"  style="overflow:visible;"/>
								</clipPath>
								
									<linearGradient id="SVGID_00000065064279383345458260000001598339497451044029_" gradientUnits="userSpaceOnUse" x1="2244.0967" y1="-89.7695" x2="2254.0967" y2="-89.7695" gradientTransform="matrix(19.0042 -7.582 7.582 19.0042 -41845.3516 19081.8379)">
									<stop  offset="0" style="stop-color:#16F8F7"/>
									<stop  offset="1" style="stop-color:#1902E7"/>
								</linearGradient>
								
									<polygon style="clip-path:url(#SVGID_00000088127903843391284410000015695546786351071120_);fill:url(#SVGID_00000065064279383345458260000001598339497451044029_);" points="
									72.9,271.8 342.8,164.1 417.6,351.5 147.6,459.2 								"/>
							</g>
						</g>
					</g>
				</g>
			</g>
		</g>
		<g>
			<g>
				<g>
					<g>
						<g>
							<g>
								<defs>
									<path id="SVGID_00000027605169679736038980000000777253065034630304_" d="M312.4,213.3c0,18-3.7,34.8-10,48.9
										c46.5,14.2,77.3,34.2,77.3,55.5c0,4.9-1.4,13.5-11.5,21.2c0,0-0.1,0.1-0.2,0.1c24.2-18,32.2-43.1,32.2-69.8
										c0-57.4-33.3-77-92.1-88.8C310.9,190.6,312.4,201.7,312.4,213.3"/>
								</defs>
								<clipPath id="SVGID_00000020367552161213483110000004734396652427933350_">
									<use xlink:href="#SVGID_00000027605169679736038980000000777253065034630304_"  style="overflow:visible;"/>
								</clipPath>
								
									<linearGradient id="SVGID_00000127766457166459822850000003156478613169755315_" gradientUnits="userSpaceOnUse" x1="2466.9199" y1="-247.7886" x2="2476.9199" y2="-247.7886" gradientTransform="matrix(-7.0897 -8.6651 8.6651 -7.0897 20021.0996 19919.2891)">
									<stop  offset="0" style="stop-color:#16F8F7"/>
									<stop  offset="1" style="stop-color:#1902E7"/>
								</linearGradient>
								
									<polygon style="clip-path:url(#SVGID_00000020367552161213483110000004734396652427933350_);fill:url(#SVGID_00000127766457166459822850000003156478613169755315_);" points="
									341.7,387 224.7,244 361,132.5 478,275.4 								"/>
							</g>
						</g>
					</g>
				</g>
			</g>
		</g>
		<g>
			<path class="st6" d="M308.1,180.4c-6.9-1.4-101.5-20.8-105.7-21.7c-8,15.1-12.8,34-12.8,54.6c0,7.7,0.7,15.2,1.9,22.4
				c9.9,2.3,99.1,23.6,110.9,26.5c6.3-14,10-30.8,10-48.9C312.4,201.7,310.9,190.6,308.1,180.4 M270.7,228.8h-39.3v-6.5h39.3V228.8z
				 M270.7,216.6h-39.3v-6.5h39.3V216.6z M270.7,204.4h-39.3v-6.5h39.3V204.4z"/>
		</g>
		<g>
			<g>
				<g>
					<g>
						<g>
							<g>
								<defs>
									<path id="SVGID_00000027602469016766383100000017396041271125887872_" d="M104.2,148.1c0,67.6,62.4,81.5,87.3,87.7
										c-1.3-7.2-1.9-14.7-1.9-22.4c0-20.5,4.8-39.5,12.8-54.6c-30.9-6.4-58.6-13.5-74.2-22.9c-16.5-9.9-19.5-24.3-8.3-38.6
										C108,111.6,104.2,129.2,104.2,148.1"/>
								</defs>
								<clipPath id="SVGID_00000178172485027651782520000011706698070733031326_">
									<use xlink:href="#SVGID_00000027602469016766383100000017396041271125887872_"  style="overflow:visible;"/>
								</clipPath>
								
									<linearGradient id="SVGID_00000080916365286165152100000003536019923289729185_" gradientUnits="userSpaceOnUse" x1="2231.3562" y1="138.8334" x2="2241.3562" y2="138.8334" gradientTransform="matrix(6.5973 7.8774 -7.8774 6.5973 -13494.752 -18351.5137)">
									<stop  offset="0" style="stop-color:#16F8F7"/>
									<stop  offset="1" style="stop-color:#1902E7"/>
								</linearGradient>
								
									<polygon style="clip-path:url(#SVGID_00000178172485027651782520000011706698070733031326_);fill:url(#SVGID_00000080916365286165152100000003536019923289729185_);" points="
									161.9,48.9 270.6,178.7 144.7,284.1 36.1,154.4 								"/>
							</g>
						</g>
					</g>
				</g>
			</g>
		</g>
	</g>
</g>
</svg>
