<?xml version="1.0" encoding="utf-8"?>
<!-- Generator: Adobe Illustrator 25.2.0, SVG Export Plug-In . SVG Version: 6.00 Build 0)  -->
<svg version="1.1" xmlns="http://www.w3.org/2000/svg" xmlns:xlink="http://www.w3.org/1999/xlink" x="0px" y="0px"
	 viewBox="0 0 566.93 476.22" style="enable-background:new 0 0 566.93 476.22;" xml:space="preserve">
<style type="text/css">
	.st0{fill-rule:evenodd;clip-rule:evenodd;fill:#FFFF00;}
	.st1{fill-rule:evenodd;clip-rule:evenodd;}
	.st2{display:none;}
	.st3{display:inline;}
	.st4{fill:none;}
</style>
<g id="TDF-Logo">
	<g>
		
			<ellipse transform="matrix(0.0777 -0.997 0.997 0.0777 264.503 594.3496)" class="st0" cx="453.5" cy="154.21" rx="56.69" ry="56.69"/>
		<g>
			<path class="st1" d="M186.73,196.03c-0.96,30.66,23.06,56.29,53.65,57.25c30.59,0.96,56.17-23.11,57.13-53.76
				c0.96-30.66-23.06-56.29-53.65-57.25C213.27,141.31,187.69,165.38,186.73,196.03z M279.36,194.65
				c-0.65,20.81-18.02,37.16-38.79,36.5c-20.77-0.65-37.08-18.06-36.43-38.87c0.65-20.81,18.02-37.16,38.79-36.5
				C263.71,156.43,280.02,173.84,279.36,194.65z"/>
			<path class="st1" d="M235.58,190.55c-0.04,4.17,3.31,7.59,7.47,7.62c4.16,0.04,7.57-3.31,7.61-7.48
				c0.04-4.17-3.31-7.59-7.47-7.62C239.02,183.03,235.62,186.38,235.58,190.55z"/>
			<path class="st1" d="M329.9,158.87c7.91-14.2,14.49-75.11,14.49-75.11s-16.81,65.56-32.08,64.64
				c-9.89-0.37-28.2-42.12-28.2-42.12s1.65,28.63,8,44.47C299.77,169.84,316.85,182.28,329.9,158.87z"/>
			<path class="st1" d="M395.94,205.76c-0.74-8.33-8.95-10.61-13.87-5.45c-4.33,4.55-7.54,13.59-3.5,25.07
				c1.82,4.43,5.07,6.95,9.4,7.26c0.13,0.01,0.26,0.01,0.4,0.02c4.08,0.04,8.71-3.85,11.64-9.83c2.15-4.4,3.18-9.13,3.19-9.18
				l0.09-0.41l-1.94-0.57l-0.16,0.37c-1.45,3.38-6.65,12.95-11.49,12.63c-3.66-0.14-4.02-4.11-4.05-5.19
				C390.35,217.3,396.52,212.25,395.94,205.76z M388.94,212.85c-1.66,2.28-4.15,4.05-4.15,4.05c-0.09-3.05,0.6-9.95,3.69-11.69
				C390.76,204.09,391.22,209.72,388.94,212.85z"/>
			<path class="st1" d="M366.76,230.94c2.03,3.44,7.59,7.47,8.76,8.29l0.37,0.26l2.58-0.85c0,0-4.88-6.44-7.07-17.18l-3.88-39.81
				l-1.8,1.54l-3.01,29.69c-1.01-0.63-2.21-0.8-3.54-0.5c-6.57,1.48-15.82,14.93-17.05,22.56c-0.62,3.86,2.09,10.93,8.7,11.3
				C354.55,246.45,360.33,243.62,366.76,230.94z M353.26,237.23c-7.22,4.27,1.95-16.21,5.92-17.96c2.89-1.27,3.49,2.97,2.61,5.77
				C361.06,227.43,356.82,235.13,353.26,237.23z"/>
			<path class="st1" d="M101.77,305.48c13.01-5.56,27.92-12.31,43.54-20.14c0,0,1.86-3.27,2.33-4.55c0,0-20.86,1.64-44.69,7.01
				c0,0,0-0.02,0-0.02c2.46-34.84,22.05-58.27,35.42-66.91l-6.72-1.2c-36.43,2.89-53.61,39.9-53.37,74.76c0,0,0.01,0.09,0.01,0.24
				c-7.74,2.65-15.14,5.77-21.6,9.44c0,0,0.64,5.51,0.64,9.45c0,3.94-0.64,9.56-0.64,9.56s8.82-3,22.99-8.58
				c2.43,27.69,9.43,69.48,21.94,104.98l3.74-0.01C105.36,419.52,99.67,356.53,101.77,305.48z"/>
			<path class="st1" d="M186.04,345.41c1.61-10.62-48.32-44.13-53.88-29.96c-6.6,16.8-8.73,98.23-8.73,98.23l5.11-2.39l18.92-79.91
				c19.89,14.32,23.66,10.1,5.04,30.71l-1.87,2.07c-0.73,0.8-0.94,1.95-0.55,2.96l4.81,12.63c0.5,1.31,1.66,2.26,3.05,2.48
				l38.74,7.62l-33.1-20.43C170.4,363.08,185.21,353.76,186.04,345.41z"/>
			<path class="st1" d="M325.21,274.5c-12.07,2.21-31.99,41.6-31.99,41.6l-11.76-30.88c-0.45,29.92,4.14,68.72,4.14,68.72l8.89,4.05
				l29.77-58.78c0,0,1.89,14.07,14.96,44.13l2.99-1.32C340.45,319.92,342.82,271.27,325.21,274.5z"/>
			<path class="st1" d="M375.02,298.26c-8.47-25.1,30.9-49.15,30.9-49.15l-0.2-3.71c0,0-53.18,22.12-53.65,52.48
				c-0.38,24.94,22.29,31.49,44.82,26.43c16.48-3.7,29.36-13.77,29.36-13.77l-1.36-0.83C424.88,309.71,383.15,322.38,375.02,298.26z
				"/>
			<path class="st1" d="M442.54,288.05c-5.61-6.91-3.74-16.63-3.74-16.63c22.32-6.02,37.82-28.03,35.67-39.03
				c-1.67-8.51-14.19-13.49-31.3-1.12c-29.94,23.96-28.21,68.08-4.65,75.34c29.5,7.71,68.25-43.7,71.5-48.09
				c0.15-0.2,0.22-0.43,0.22-0.68v-2.77C504.72,263.61,455.72,304.27,442.54,288.05z M462.76,237.06c6.5-0.27-4.2,21.15-23.2,25.91
				C442.52,248.69,458.89,237.23,462.76,237.06z"/>
			<polygon class="st1" points="488.46,235.58 491.17,235.57 491.17,224.69 494.63,224.69 494.63,222.35 485,222.37 485,224.7 
				488.46,224.7 			"/>
			<path class="st1" d="M506.55,222.33l-3.2,10.11l-0.05,0l-3.02-10.1l-3.68,0.01v13.21l2.42,0v-6.15c0-0.7-0.06-2.11-0.17-4.22
				l0.08,0l3.07,10.36l2.48,0l3.29-10.36l0.08,0c-0.07,1.66-0.11,2.69-0.12,3.07c-0.01,0.38-0.01,0.73-0.01,1.02v6.25l2.52,0v-13.21
				L506.55,222.33z"/>
			<path class="st1" d="M163.07,281.5c16.38-78.86,8.6-121.07,8.38-132.29c8.34-3.51,73.32-38.05,73.32-38.05
				c-21.32,2.58-102.7,22.62-158.57,50.83c26.69-1.9,57.3-5.29,67.45-7.04C150.89,193.52,153.44,250.28,163.07,281.5z"/>
			<path class="st1" d="M457.02,76.17c5.37,0.05,9.76-4.27,9.81-9.65c0.05-5.38-4.26-9.78-9.63-9.83c-5.37-0.05-9.76,4.27-9.81,9.65
				S451.66,76.12,457.02,76.17z"/>
			<path class="st1" d="M339.28,210.82c12.64-26.76,37.92-112.77,39.53-126.63c0.59-5.12,35.16-8.17,43.59-3.67
				c0,0-22.1,12.99-27.79,19.76c-5.23,6.22-7.39,13.02,1.04,18.88c7.88,5.48,55.28,29.61,55.28,29.61l-0.18-4.21l-46.48-34.54
				c15.89-8.68,39.21-22.42,39.45-30.07c0.03-0.18,0.04-0.36,0.04-0.54c0-0.01,0-0.01,0-0.02c0-0.01,0-0.02,0-0.03
				c-0.01-0.22-0.03-0.43-0.08-0.63c-0.84-5.73-8.94-15.08-22.11-17.96c-0.02,0-0.04,0-0.05-0.01
				c-15.58-3.95-46.51-4.17-59.55,10.52c-3.51,3.96-8.6,32.56-27.73,142.73L339.28,210.82z"/>
			<path class="st1" d="M249.7,325.74L249.7,325.74c0-0.01-0.01,0.01-0.02,0.04c0,0,0,0.01,0,0.01c-0.13,0.27-0.78,1.64-2.28,6.17
				c-1.73,5.22-3.48,9.9-8.01,16.75c-7.79,9.79-17.94,16.95-21.43,13.66c-7.68-7.03,14.66-40.15,33.72-63.62l-8.49-0.98
				c-18.71,15.98-45.28,47.47-45.12,71.32c0.19,29.23,54.88,9.68,57.87-28.51c2.42,7.09,17.44,24.32,17.44,24.32
				s-7.37-23.34-12.15-38.17C259.42,321.2,251.9,321.14,249.7,325.74z"/>
		</g>
	</g>
</g>
<g id="Zone_de_protection" class="st2">
	<g class="st3">
		<rect x="56.69" y="56.69" class="st4" width="453.54" height="362.83"/>
		<path class="st4" d="M226.77,56.69C226.77,25.38,252.15,0,283.46,0c31.31,0,56.69,25.38,56.69,56.69"/>
		<path class="st4" d="M340.16,419.53c0,31.31-25.38,56.69-56.69,56.69c-31.31,0-56.69-25.38-56.69-56.69"/>
		<path class="st4" d="M510.24,181.03c31.31,0,56.69,25.38,56.69,56.69c0,31.31-25.38,56.69-56.69,56.69"/>
		<path class="st4" d="M56.69,294.42C25.38,294.42,0,269.03,0,237.72c0-31.31,25.38-56.69,56.69-56.69"/>
	</g>
</g>
</svg>
