<svg xmlns:inkscape="http://www.inkscape.org/namespaces/inkscape" xmlns:sodipodi="http://sodipodi.sourceforge.net/DTD/sodipodi-0.dtd" xmlns="http://www.w3.org/2000/svg" xmlns:svg="http://www.w3.org/2000/svg" width="272.46692853778495" height="367.01701941097156" viewBox="0 0 141.84293 191.03238" version="1.1" id="svg1" inkscape:version="1.4.2 (f4327f4, 2025-05-13)" sodipodi:docname="FA Cup logo (2020) (Emirates).svg">
  <sodipodi:namedview id="namedview1" pagecolor="#ffffff" bordercolor="#000000" borderopacity="0.25" inkscape:showpageshadow="2" inkscape:pageopacity="0.0" inkscape:pagecheckerboard="0" inkscape:deskcolor="#d1d1d1" inkscape:document-units="mm" inkscape:zoom="0.71891835" inkscape:cx="-181.5227" inkscape:cy="331.74838" inkscape:window-width="1920" inkscape:window-height="1009" inkscape:window-x="-8" inkscape:window-y="-8" inkscape:window-maximized="1" inkscape:current-layer="layer1"/>
  <defs id="defs1"/>
  <g inkscape:label="Layer 1" inkscape:groupmode="layer" id="layer1" transform="translate(-153.19375,-60.589585)">
    <path class="st0" d="m 222.59396,61.823039 c 0.55562,-0.449792 1.03187,-1.164167 1.82562,-1.217083 0.58208,-0.07937 1.16417,0.132291 1.56104,0.582083 0.42334,0.47625 1.16417,0.79375 1.11125,1.508125 -0.15875,0.740833 -0.42333,1.561041 -0.10583,2.301875 0.34396,1.296458 1.71979,1.957916 1.98437,3.280833 0.15875,1.137708 -0.47625,2.328333 -1.4552,2.910417 -0.42334,0.291041 -0.9525,0.370416 -1.32292,0.740833 0.10583,0.529167 0.15875,1.084792 0.13229,1.613958 2.14313,0.132292 4.31271,0.687917 6.08542,1.931459 0.87312,0.555625 1.45521,1.455208 1.61396,2.460625 -3.67771,-1.005417 -7.51417,-1.42875 -11.32417,-1.217084 -2.51354,0.105834 -5.02708,0.502709 -7.43479,1.217084 0.0529,-1.058334 0.76729,-1.905 1.5875,-2.460625 1.79916,-1.217084 3.94229,-1.772709 6.05896,-1.905 0.0794,-0.608542 0.0794,-1.217084 0,-1.825625 -1.34938,-0.343959 -2.59292,-1.455209 -2.64584,-2.910417 -0.0529,-0.873125 0.44979,-1.640417 1.00542,-2.2225 0.76729,-0.79375 1.40229,-1.957917 1.03187,-3.095625 -0.0794,-0.582083 -0.29104,-1.322916 0.29105,-1.693333 M 208.20062,83.06908 c 4.33917,-2.143125 9.15459,-3.175 13.97,-3.518958 2.35479,-0.05292 4.7625,-0.15875 7.09084,0.238125 -2.09021,0.899583 -4.20688,1.957917 -5.66209,3.783542 -0.71437,0.79375 -1.08479,1.931458 -2.09021,2.434166 -4.04812,0.238125 -8.04333,1.243542 -11.85333,2.619375 -0.55562,-1.772708 -1.05833,-3.545416 -1.85208,-5.212291 l 0.39687,-0.343959 m -16.66875,8.069792 c 0.34396,-1.508125 0.92605,-2.963333 1.79917,-4.259792 0.58208,1.349375 1.21708,2.672292 1.85208,3.995208 0,0.608542 -0.26458,1.217084 -0.3175,1.825625 -0.66145,4.153959 0.23813,8.387297 2.56646,11.879787 1.32292,2.0373 3.38667,3.51896 5.74146,4.15396 0.15875,1.11125 0.23813,2.24896 0.18521,3.36021 l -0.55563,0.10583 c -0.76729,-0.0529 -1.50812,-0.26458 -2.16958,-0.66145 -0.89958,-0.50271 -1.87854,-0.92605 -2.72521,-1.56105 -0.79375,-0.55562 -1.40229,-1.34937 -2.27541,-1.79916 l -0.1323,-0.0794 c -0.0265,-0.0794 -0.0529,-0.23812 -0.0529,-0.3175 -1.40229,-1.66687 -2.46063,-3.59833 -3.175,-5.66208 -0.0794,-0.23812 -0.15875,-0.44979 -0.23813,-0.68792 -1.08479,-3.307288 -1.24354,-6.879163 -0.50271,-10.292288 m 19.57917,0.211666 c 3.175,-1.164166 6.48229,-2.037291 9.86896,-2.2225 -0.97896,5.23875 0.0794,10.530417 0.82021,15.716252 0.71437,4.68312 1.64041,9.33979 2.2225,14.02291 -3.01625,-0.0264 -5.97959,0.4498 -8.91646,1.00542 0.26458,-1.16417 0,-2.35479 -0.13229,-3.51896 -0.4498,-2.75166 -1.29646,-5.50333 -2.96334,-7.77875 0.26459,-2.14312 0.15875,-4.28625 0.18521,-6.42937 -0.18521,-3.492502 -0.55562,-7.037918 -1.5875,-10.398127 -0.0794,-0.291041 0.34396,-0.264583 0.50271,-0.396875 m 41.80417,6.19125 c 1.11125,2.698752 1.42875,5.715002 0.635,8.546042 -1.05834,3.81 -3.65125,7.27604 -7.22313,9.10167 0.0529,-1.29646 -0.39687,-2.75167 0.29104,-3.9423 3.22792,-2.56645 5.10646,-7.06437 3.88938,-11.11249 0.66146,-0.978963 1.66687,-1.640422 2.40771,-2.592922 m -33.44334,24.712082 c 1.13771,-0.15875 2.43417,-0.10583 3.36021,0.635 0.60854,0.47625 0.74083,1.32292 0.71438,2.03729 0,4.41854 0,8.86354 0,13.28209 0,0.34395 -0.0529,0.68791 -0.10584,1.00541 -0.71437,0 -1.45521,0.0265 -2.16958,0.10584 -0.82021,0.1852 -1.66688,0.1852 -2.48708,0.39687 -2.14313,-3.4925 -2.8575,-7.62 -3.20146,-11.64167 -0.0265,-1.40229 -0.18521,-2.93687 0.60854,-4.18041 0.74083,-1.05834 2.06375,-1.45521 3.28083,-1.64042 m -0.71437,23.36271 c 1.77271,-0.0794 3.51896,-0.3175 5.29166,-0.3175 -0.1852,1.74625 -0.5027,3.46604 -0.76729,5.18583 -1.29646,-0.0265 -2.61937,0.0265 -3.91583,0.15875 0,-1.64041 0.0529,-3.28083 0,-4.92125 l -0.44979,-0.0265 -0.15875,-0.0794 m -0.42334,8.28146 0.42334,-0.13229 c 0.58208,-0.0265 1.19062,-0.0529 1.77271,-0.0794 0.68791,-0.0265 1.37583,0 2.06375,0.0529 -0.87313,3.96875 -2.0373,7.88458 -3.43959,11.69458 -0.97896,0.0529 -1.93146,0.13229 -2.91041,0.21167 1.32291,-3.81 2.24895,-7.72584 2.75166,-11.72104 l -0.66146,-0.0265 m -3.33375,15.18708 c 0.89959,-0.0794 1.79917,-0.18521 2.6723,-0.29104 -0.92605,2.14312 -2.11667,4.18042 -3.20146,6.21771 l 0.68791,0.0265 c -0.97895,0.10583 -1.98437,0.15875 -2.96333,0.29104 0.9525,-2.06375 1.98438,-4.10104 2.80458,-6.24417 z" id="path1" style="fill:#e30613;stroke-width:0.264583"/>
    <path class="st1" d="m 229.28791,79.788247 c 2.2225,0.05292 4.445,0.582083 6.58813,1.190625 -0.74083,0.608542 -1.50813,1.190625 -2.06375,1.957917 -0.55563,0.767291 -1.32292,1.375833 -1.82563,2.2225 -0.26458,0.502708 -0.60854,0.9525 -1.05833,1.322916 -0.58208,-0.15875 -1.16417,-0.238125 -1.77271,-0.264583 -0.74083,-0.264583 -1.53458,-0.105833 -2.30187,-0.238125 -1.48167,-0.211667 -2.98979,-0.211667 -4.47146,0 -0.29104,0 -0.58208,0.02646 -0.84667,0.02646 1.00542,-0.502708 1.37584,-1.640416 2.09021,-2.434166 1.42875,-1.825625 3.57188,-2.883959 5.66208,-3.783542 z" id="path2" style="fill:#b71a23;stroke-width:0.264583"/>
    <path class="st2" d="m 235.87604,80.952414 c 1.32292,0.370416 2.61937,0.820208 3.88937,1.349375 0.26459,0.132291 0.60855,0.185208 0.7673,0.47625 -0.29105,1.058333 -1.16417,1.74625 -1.66688,2.69875 -0.47625,0.873125 -1.16417,1.613958 -1.61396,2.513541 l -0.15875,0.05292 c -2.01083,-0.608542 -4.02166,-1.296458 -6.11187,-1.561042 0.44979,-0.370416 0.79375,-0.820208 1.05833,-1.322916 0.47625,-0.820209 1.24354,-1.42875 1.82563,-2.2225 0.5027,-0.79375 1.27,-1.375834 2.01083,-1.984375 z" id="path3" style="fill:#cd101b;stroke-width:0.264583"/>
    <path class="st3" d="m 240.50625,82.804497 0.0529,-0.211667 c 1.21709,0.767292 2.54,1.375834 3.70417,2.248959 -1.21708,0.820208 -1.61396,2.38125 -1.93146,3.730625 -0.13229,0.687916 -0.66146,1.217083 -1.11125,1.746249 -1.21708,-0.873125 -2.56646,-1.613958 -3.96875,-2.169583 l -0.0265,-0.132291 c 0.47625,-0.873125 1.13771,-1.640417 1.61396,-2.513542 0.50271,-0.9525 1.40229,-1.640417 1.66688,-2.69875 z" id="path4" style="fill:#e00714;stroke-width:0.264583"/>
    <path class="st4" d="m 194.89208,85.159289 c 1.71979,-1.190625 3.75709,-1.799167 5.84729,-1.772709 1.53459,0.105834 3.04271,0.529167 4.39209,1.27 0.68791,1.878542 1.45521,3.757084 1.905,5.715 -0.21167,0.767292 -0.76729,1.349375 -1.24354,1.957917 -0.58209,0.740833 -0.97896,1.561041 -1.53459,2.301875 -0.635,0.846666 -1.50812,1.508125 -2.06375,2.407708 -0.39687,0.661458 -0.84666,1.296458 -1.32291,1.878542 -1.93146,-4.577292 -3.9423,-9.181042 -5.97959,-13.758333 z" id="path5" style="fill:#c91a21;stroke-width:0.264583"/>
    <path class="st5" d="m 242.33187,88.572414 c 0.34396,-1.349375 0.71438,-2.910417 1.95792,-3.730625 1.53458,1.164166 2.93687,2.592916 3.59833,4.444999 -1.37583,1.799167 -2.2225,3.915834 -2.98979,6.0325 -2.03729,6.032502 -2.88396,12.435412 -2.48708,18.785412 0.29104,3.59834 1.05833,7.27605 2.98979,10.37167 -0.47625,-0.13229 -0.84667,-0.44979 -1.24354,-0.71437 -1.16417,-0.71438 -2.35479,-1.32292 -3.62479,-1.85209 -0.18521,-0.34396 -0.34396,-0.68791 -0.42334,-1.08479 -0.26458,-2.01083 -0.82021,-3.99521 -1.05833,-6.00604 -0.0265,-0.23813 0.13229,-0.44979 0.21167,-0.66146 0.0529,0.21167 0.15875,0.60854 0.21166,0.82021 -0.23812,-1.40229 -0.0529,-2.83104 -0.21166,-4.23333 -0.0529,-0.82021 -0.0265,-1.66688 0.0794,-2.48709 0.0265,-3.73062 0.55563,-7.46125 1.53458,-11.05958 0.10584,-0.370417 0.21167,-0.740833 0.3175,-1.084792 0.1323,-0.449791 0.23813,-0.899583 0.39688,-1.349375 0.37042,-1.058333 0.71437,-2.116666 1.08479,-3.148541 -0.44979,-0.449792 -0.89958,-0.899584 -1.40229,-1.27 0.39687,-0.555625 0.92604,-1.058334 1.05833,-1.772708 z" id="path6" style="fill:#ea0210;stroke-width:0.264583"/>
    <path class="st6" d="m 220.98,88.969288 c 1.21708,-0.02646 2.43416,-0.07937 3.65125,-0.185208 1.93146,0.185208 3.88937,0.105834 5.79437,0.582083 -0.3175,0.132292 -0.60854,0.3175 -0.87312,0.555625 -0.52917,1.217084 -0.635,2.592917 -0.89959,3.889375 -0.39687,1.799167 -0.89958,3.624792 -0.71437,5.450417 0.15875,2.35479 -0.0529,4.73604 0.15875,7.09083 0.0529,0.92604 -0.0529,1.85209 0.0529,2.77813 0.23812,1.93146 0.0529,3.88937 0.39687,5.82083 0.23813,1.24354 0.15875,2.54 0.47625,3.78354 -0.0794,0.10584 -0.23812,0.29104 -0.29104,0.37042 -1.53458,-0.26458 -3.12208,-0.26458 -4.65667,-0.23813 -0.58208,-4.70958 -1.50812,-9.33979 -2.2225,-14.02291 -0.74083,-5.185835 -1.79916,-10.50396 -0.82021,-15.716252 z" id="path7" style="fill:#b81923;stroke-width:0.264583"/>
    <path class="st7" d="m 229.52604,89.921788 c 0.26458,-0.211666 0.55562,-0.396875 0.87312,-0.555625 0.74084,0 1.45521,0.343959 2.19605,0.3175 l 0.0794,0.264584 c -0.44979,2.328333 -1.48167,4.524375 -1.5875,6.932083 -0.0529,2.196042 -0.39687,4.39208 -0.3175,6.58812 -0.23812,4.63021 0.39688,9.23396 0.71438,13.86417 0.0529,0.71438 0.21166,1.40229 0.44979,2.06375 -1.11125,0.0529 -2.16959,-0.37042 -3.25438,-0.26458 0.0794,-0.0794 0.23813,-0.26459 0.29104,-0.37042 -0.3175,-1.24354 -0.23812,-2.54 -0.47625,-3.78354 -0.3175,-1.93146 -0.15875,-3.88938 -0.39687,-5.82083 -0.10583,-0.92605 0,-1.85209 -0.0529,-2.77813 -0.21166,-2.35479 0,-4.73604 -0.15875,-7.090832 -0.21166,-1.852083 0.3175,-3.677708 0.71438,-5.450416 0.3175,-1.322917 0.39687,-2.672292 0.92604,-3.915834 z" id="path8" style="fill:#c8121d;stroke-width:0.264583"/>
    <path class="st8" d="m 232.7275,89.974705 c 0.42333,-0.238125 0.92604,0.185208 1.40229,0.238125 1.53458,0.449792 3.04271,1.058333 4.445,1.852083 -0.68792,0.635 -0.60854,1.640417 -1.05833,2.407709 -0.66146,1.164166 -0.71438,2.566458 -1.00542,3.862916 -0.58208,2.275422 -0.47625,4.656662 -0.76729,6.985002 -0.23813,1.5875 0.15875,3.14854 -0.0529,4.73604 -0.26458,2.93687 0.39688,5.82083 0.76729,8.70479 0.10584,0.60854 0.23813,1.21708 0.39688,1.79917 -0.74084,-0.23813 -1.50813,-0.42334 -2.27542,-0.58209 -0.82021,-0.26458 -1.66687,-0.39687 -2.54,-0.42333 0,-0.0529 -0.0529,-0.13229 -0.0529,-0.18521 -0.23812,-0.66146 -0.37041,-1.37583 -0.44979,-2.06375 -0.3175,-4.60375 -0.9525,-9.2075 -0.71437,-13.86416 -0.0794,-2.19604 0.26458,-4.392087 0.3175,-6.588128 0.0794,-2.354792 1.13771,-4.577292 1.5875,-6.879167 z" id="path9" style="fill:#d70b17;stroke-width:0.264583"/>
    <path class="st9" d="m 207.03646,90.398038 0.0529,-0.211666 c 1.19063,4.339166 2.06375,8.810625 2.11667,13.334998 0.0794,5.31813 -0.71437,10.82146 -3.175,15.61042 -2.30187,4.28625 -6.21771,7.3025 -9.94833,10.26583 0.0529,-0.18521 0.13229,-0.34396 0.26458,-0.50271 1.87854,-2.09021 3.59833,-4.36562 4.7625,-6.95854 1.29646,-3.01625 2.06375,-6.21771 2.27542,-9.49854 l -0.60854,-0.23813 0.55562,-0.10583 c 0.0529,-1.11125 -0.0265,-2.24896 -0.18521,-3.36021 l 0.18521,-0.26458 c -0.37042,-3.28083 -1.32292,-6.45583 -2.46062,-9.525 0.47625,-0.608542 0.92604,-1.243542 1.32291,-1.878542 0.58209,-0.899583 1.42875,-1.561041 2.06375,-2.407708 0.55563,-0.740833 0.97896,-1.5875 1.53459,-2.301875 0.47625,-0.635 1.05833,-1.217083 1.24354,-1.957917 z" id="path10" style="fill:#c01b21;stroke-width:0.264583"/>
    <path class="st10" d="m 237.49,94.472622 c 0.42333,-0.767292 0.37041,-1.772709 1.05833,-2.407709 0.23813,0.238125 0.87313,0.370417 0.66146,0.820209 -0.79375,3.862916 -1.16417,7.805208 -1.11125,11.773958 0.15875,2.96333 0.52917,5.92667 1.08479,8.83708 0.0265,0.21167 0.15875,0.44979 0.0529,0.68792 -0.10584,0.21167 -0.23813,0.42333 -0.21167,0.66146 0.23813,2.01083 0.79375,3.99521 1.05833,6.00604 0.10584,0.37042 0.26459,0.74083 0.4498,1.08479 -1.21709,-0.50271 -2.43417,-0.9525 -3.67771,-1.32292 -0.13229,-0.60854 -0.29104,-1.19062 -0.39688,-1.79916 -0.37041,-2.88396 -1.03187,-5.76792 -0.76729,-8.70479 0.21167,-1.5875 -0.18521,-3.175 0.0529,-4.73605 0.29104,-2.32833 0.21166,-4.70958 0.76729,-6.984995 0.29104,-1.349375 0.3175,-2.725208 0.97896,-3.915833 z" id="path11" style="fill:#e40512;stroke-width:0.264583"/>
    <path class="st11" d="m 244.87187,104.34158 c 0.71438,-3.96875 1.5875,-7.990417 3.43959,-11.58875 2.06375,1.005417 3.62479,2.778125 4.60375,4.815417 -0.74084,0.926041 -1.77271,1.5875 -2.40771,2.592913 -2.43417,3.25438 -3.73063,7.24959 -4.10104,11.27125 l 0.1852,-0.15875 c -0.68791,1.19063 -0.23812,2.64584 -0.29104,3.94229 -0.52916,0.29105 -1.11125,0.50271 -1.71979,0.60855 -0.29104,-1.53459 -0.26458,-3.06917 -0.26458,-4.63021 -0.0529,-2.30188 0.26458,-4.57729 0.55562,-6.85271 z" id="path12" style="fill:#ae1d22;stroke-width:0.264583"/>
    <path class="st12" d="m 195.60646,108.2045 c 0.87312,0.44979 1.48166,1.24354 2.27541,1.79916 0.84667,0.635 1.82563,1.03188 2.72521,1.56104 -0.29104,0.58209 -0.21166,1.24355 -0.34396,1.85209 -0.15875,1.53458 -0.44979,3.06916 -0.84666,4.55083 -0.60854,2.09021 -1.29646,4.20688 -2.38125,6.11188 0.66146,-5.34459 -0.21167,-10.71563 -1.42875,-15.875 z" id="path13" style="fill:#c11b21;stroke-width:0.264583"/>
    <path class="st13" d="m 212.01062,108.60137 c 1.64042,2.27542 2.48709,5.02708 2.96334,7.77875 0.13229,1.16417 0.39687,2.35479 0.13229,3.51896 0,0.0529 -0.0265,0.13229 -0.0265,0.18521 -1.00542,0 -1.93146,0.47625 -2.91042,0.58208 -0.0794,-1.40229 -0.34395,-2.77812 -0.74083,-4.1275 -0.13229,-0.34396 -0.37042,-0.635 -0.71437,-0.79375 0.60854,-2.38125 1.03187,-4.7625 1.29645,-7.14375 z" id="path14" style="fill:#b51a25;stroke-width:0.264583"/>
    <path class="st14" d="m 210.63479,115.66575 0.10583,0.0529 c 0.3175,0.15875 0.58209,0.44979 0.71438,0.79375 0.39687,1.34938 0.66146,2.72521 0.74083,4.1275 v 0.10584 c -1.74625,0.44979 -3.43958,1.00541 -5.08,1.74625 1.5875,-2.01084 2.80459,-4.33917 3.51896,-6.82625 z" id="path15" style="fill:#c01521;stroke-width:0.264583"/>
    <path class="st15" d="m 227.30354,122.30679 c 1.50812,-0.3175 3.06917,-0.13229 4.47146,0.50271 1.13771,0.58208 1.85208,1.7727 1.82562,3.0427 0.0529,1.42875 -0.0529,2.83105 -0.10583,4.2598 -0.47625,3.30729 -1.34938,6.64104 -2.96333,9.60437 l -0.47625,-0.13229 c 0.26458,-0.76729 -0.39688,-1.42875 -0.34396,-2.19604 0.0794,-0.87313 -0.26459,-1.69334 -0.29104,-2.54 -0.3175,-3.78354 -1.27,-7.51417 -1.5875,-11.29771 -0.0794,-0.44979 -0.34396,-0.84667 -0.52917,-1.24354 z" id="path16" style="fill:#c2141f;stroke-width:0.264583"/>
    <path class="st16" d="m 225.63666,124.2647 c -0.0265,-0.97895 0.84667,-1.61395 1.66688,-1.93145 0.21167,0.39687 0.47625,0.79375 0.50271,1.27 0.3175,3.78354 1.27,7.4877 1.5875,11.2977 0.0529,0.84667 0.39687,1.66688 0.29104,2.54 -0.0529,0.7673 0.60854,1.42875 0.34396,2.19605 l 0.47625,0.13229 c -1.64042,-0.13229 -3.25438,-0.50271 -4.89479,-0.44979 0.0265,-5.05355 0.0265,-10.05417 0.0265,-15.0548 m -10.53041,22.06625 c 1.27,-0.23812 2.51354,-0.60854 3.83646,-0.60854 l 0.44979,0.0265 c 0.0529,1.64042 0,3.28083 0,4.92125 -0.87313,0.0794 -1.74625,0.21167 -2.59292,0.39688 -0.635,0.15875 -1.29646,0.23812 -1.95792,0.23812 l -0.15875,-0.23812 c 0.21167,-0.82021 0.42334,-1.64042 0.37042,-2.48709 -0.0529,-0.52916 0.0265,-1.05833 0.23813,-1.56104 -0.0529,-0.18521 -0.1323,-0.39687 -0.18521,-0.58208 -0.0265,-0.0265 0,-0.0794 0,-0.10584 z" id="path17" style="fill:#b51a24;stroke-width:0.264583"/>
    <path class="st17" d="m 208.41229,125.27012 c 0.89958,-0.47625 1.905,-0.68792 2.91042,-0.635 0.82021,-0.0794 1.87854,0.23813 2.06375,1.16417 -0.0265,1.37583 0.21166,2.72521 0.26458,4.10104 0.29104,3.54542 1.29646,7.01146 2.91042,10.18646 l -0.1323,0.26458 c -0.76729,0.21167 -1.50812,0.50271 -2.2225,0.89958 -1.50812,-0.92604 -2.69874,-2.27541 -3.80999,-3.62479 -0.0794,-0.15875 -0.3175,-0.29104 -0.29105,-0.50271 0.37042,-0.89958 0.0794,-1.85208 -0.0529,-2.75166 -0.23813,-1.08479 0.0529,-2.2225 -0.3175,-3.28084 -0.58209,-1.905 -0.3175,-4.04812 -1.32292,-5.82083 z" id="path18" style="fill:#c21420;stroke-width:0.264583"/>
    <path class="st18" d="m 235.95541,125.40241 c 0.18521,-0.39687 0.66146,-0.52916 1.00542,-0.74083 0.10583,0.47625 0.15875,1.05833 0.635,1.34937 l -0.52917,0.0794 c 2.32834,-0.29104 -0.15875,0.29104 0.71438,0.52917 -0.10583,0.52916 0.34396,0.9525 0.34396,1.48166 0.10583,1.40229 0.76729,2.67229 0.92604,4.04813 0.18521,1.27 0.55562,2.48708 0.84667,3.70416 -1.27,2.09021 -2.93688,3.91584 -4.8948,5.37105 -0.76729,-0.34396 -1.53458,-0.66146 -2.35479,-0.92605 -0.23812,-0.1852 0.0794,-0.5027 0.13229,-0.68791 0.23813,-0.44979 0.4498,-0.89959 0.66146,-1.34938 1.42875,-3.43958 2.03729,-7.14375 2.2225,-10.84791 0.0794,-0.66146 -0.10583,-1.4023 0.29104,-2.01084 m -33.54916,46.83125 c 1.16417,-0.58208 2.38125,-1.03187 3.65125,-1.40229 -0.10583,1.08479 -0.58208,2.11667 -0.82021,3.175 -0.26458,0.87313 -0.29104,1.79917 -0.50271,2.67229 l -0.0529,0.18521 c -0.26459,0.0265 -0.52917,0.0529 -0.7673,0.10583 -0.89958,0.34396 -1.79916,0.66146 -2.7252,0.9525 0.37041,-1.87854 0.89958,-3.70416 1.21708,-5.5827 z" id="path19" style="fill:#d50c18;stroke-width:0.264583"/>
    <path class="st19" d="m 236.96083,124.66158 c 1.37583,-0.0529 2.88396,-0.0794 4.02167,0.84667 1.16416,0.8202 1.42875,2.38125 1.34937,3.70416 -0.37041,2.35479 -1.19062,4.63021 -2.40771,6.6675 -0.3175,-1.21708 -0.66145,-2.46062 -0.84666,-3.70416 -0.18521,-1.37584 -0.82021,-2.6723 -0.92604,-4.04813 0,-0.52917 -0.4498,-0.9525 -0.34396,-1.48167 -0.89959,-0.26458 1.61396,-0.8202 -0.71438,-0.52916 l 0.52917,-0.0794 c -0.47625,-0.34396 -0.52917,-0.89958 -0.66146,-1.37583 m -34.52812,5.55625 c 0.58208,-0.60854 1.66687,-1.27 2.38125,-0.47625 l -0.0529,0.15875 c -0.47625,0.92604 -0.0265,1.93146 0.13229,2.88396 0.50271,2.09021 0.55563,4.23333 0.82021,6.35 0.0265,0.55562 0,1.08479 -0.13229,1.61396 -1.82563,-1.29646 -3.51896,-2.96334 -4.20688,-5.15938 -0.55562,-1.79917 -0.29104,-3.96875 1.05834,-5.37104 m -1.61396,42.91542 c 0.50271,-0.3175 1.00542,-0.58209 1.56104,-0.79375 -0.3175,1.87854 -0.84667,3.70416 -1.21708,5.5827 l -0.0265,0.0794 c -1.00542,0.34396 -1.82563,1.03187 -2.77813,1.45521 0.3175,-1.40229 0.55563,-2.83104 0.89959,-4.23334 0.18521,-0.89958 0.89958,-1.53458 1.56104,-2.0902 z" id="path20" style="fill:#e30512;stroke-width:0.264583"/>
    <path class="st20" d="m 207.08937,126.98991 c 0.26459,-0.68791 0.74084,-1.29646 1.34938,-1.71979 0.97896,1.77271 0.74083,3.91583 1.29646,5.82083 0.37041,1.05834 0.10583,2.19605 0.3175,3.28084 0.13229,0.89958 0.42333,1.87854 0.0529,2.75166 -1.37583,-1.71979 -2.19604,-3.81 -2.83104,-5.87375 -0.44979,-1.37583 -0.60854,-2.8575 -0.18521,-4.25979 z" id="path21" style="fill:#ce0e1b;stroke-width:0.264583"/>
    <path class="st21" d="m 248.89354,128.15408 0.0529,-0.23813 c 2.64583,3.4925 4.92125,7.38188 5.82083,11.72105 1.29646,5.76791 0.13229,11.85333 -2.38125,17.09208 -0.79375,-1.19063 -1.66688,-2.32833 -2.46063,-3.54542 -1.56104,-0.0529 -3.12208,0 -4.68312,-0.0529 2.51354,-2.6723 4.60375,-5.8473 5.58271,-9.44563 1.53458,-5.13292 0.74083,-10.87437 -1.93146,-15.53104 m 9.2075,14.34042 c 0.18521,0.26458 0.3175,0.58208 0.42333,0.87312 1.34938,4.10104 2.46063,8.33438 2.35479,12.67354 0.0529,4.33917 -1.48166,8.49313 -3.22791,12.40896 -0.84667,-1.21708 -1.56104,-2.51354 -2.35479,-3.78354 -1.45521,0 -2.93688,-0.18521 -4.39209,-0.26458 2.80459,-3.04271 4.92125,-6.6675 6.19125,-10.6098 1.13771,-3.65125 1.48167,-7.51416 1.00542,-11.2977 z" id="path22" style="fill:#a01e22;stroke-width:0.264583"/>
    <path class="st22" d="m 244.475,129.68866 c 0.52916,-0.68791 1.48166,-0.21166 1.98437,0.26459 1.13771,0.89958 1.50813,2.38125 1.69334,3.78354 -0.10584,1.77271 -0.82021,3.46604 -2.01084,4.81541 -1.16416,1.29646 -2.56646,2.38125 -4.10104,3.20146 -0.21167,-1.34937 -0.76729,-2.61937 -0.87312,-3.96875 1.24354,-1.85208 2.14312,-3.91583 2.7252,-6.05896 0.18521,-0.68791 0.26459,-1.40229 0.58209,-2.03729 z" id="path23" style="fill:#ea0310;stroke-width:0.264583"/>
    <path class="st23" d="m 204.86687,132.81075 c -0.15875,-0.9525 -0.58208,-1.95792 -0.13229,-2.88396 0.29104,0.47625 0.34396,1.03187 0.47625,1.56104 0.71438,2.75167 1.95792,5.31812 3.70417,7.56708 -0.10583,1.19063 0.15875,2.38125 0.0265,3.57188 -1.21709,-0.42334 -2.30188,-1.16417 -3.38667,-1.85209 0.13229,-0.52916 0.15875,-1.08479 0.13229,-1.61395 -0.26458,-2.11667 -0.3175,-4.2598 -0.82021,-6.35 z" id="path24" style="fill:#d80a17;stroke-width:0.264583"/>
    <path class="st24" d="m 192.27271,132.73137 c 0.15875,-0.15875 0.34396,-0.26458 0.55562,-0.3175 -3.25437,4.28625 -4.65666,9.78958 -4.31271,15.13417 0.10584,0.82021 0.18521,1.64041 0.23813,2.46062 0.39687,2.32834 0.97896,4.60375 1.71979,6.82625 -0.74083,0.9525 -1.21708,2.09021 -2.11667,2.91042 -1.27,1.08479 -1.82562,2.75167 -2.98979,3.91583 -0.68791,-2.30187 -1.13771,-4.68312 -1.40229,-7.09083 -0.10583,-1.05833 -0.0265,-2.11667 -0.18521,-3.175 0.10584,-2.2225 0.21167,-4.41854 0.68792,-6.61458 l 0.10583,-0.15875 c 1.08479,-5.29167 3.96875,-10.05417 7.69938,-13.89063 z" id="path25" style="fill:#b91c22;stroke-width:0.264583"/>
    <path class="st25" d="m 191.90229,141.64783 c 0.29104,-1.45521 0.82021,-2.8575 1.56104,-4.1275 -0.39687,3.94229 0.97896,7.83167 2.91042,11.21833 1.37583,2.46063 3.25437,4.60375 5.31812,6.53521 -1.4552,0 -2.91041,0.13229 -4.36562,0.10583 -0.87313,1.00542 -1.64042,2.11667 -2.48708,3.14855 h -0.3175 c -1.42875,-3.04271 -2.38125,-6.29709 -2.80459,-9.63084 -0.29104,-2.43416 -0.23812,-4.86833 0.18521,-7.24958 z" id="path26" style="fill:#b61c22;stroke-width:0.264583"/>
    <path class="st26" d="m 236.855,142.46804 c 1.64041,-1.37584 3.09562,-2.96334 4.31271,-4.70959 0.13229,1.34938 0.66145,2.61938 0.87312,3.96875 -1.37583,0.7673 -2.83104,1.50813 -4.33917,1.87855 -0.26458,-0.37042 -0.52916,-0.7673 -0.84666,-1.13771 m 1.11125,12.64708 c 1.95791,0.47625 3.86291,1.19063 5.66208,2.06375 0.18521,0.10583 0.44979,0.23813 0.44979,0.50271 0.26459,3.88937 0.50271,8.06979 2.69875,11.43 -0.60854,-0.13229 -1.08479,-0.52917 -1.64041,-0.76729 -2.61938,-1.13771 -5.42396,-1.64042 -8.22855,-2.11667 -0.42333,-0.10583 -0.84666,-0.21167 -1.27,-0.26458 0.4498,-1.32292 0.79375,-2.69875 1.4023,-3.96875 0.10583,-1.08479 0.52916,-2.09021 0.76729,-3.14854 0.15875,-1.21709 -0.0265,-2.48709 0.15875,-3.73063 z" id="path27" style="fill:#db0916;stroke-width:0.264583"/>
    <path class="st27" d="m 208.915,139.02845 c 0.9525,1.24355 2.09021,2.3548 3.33375,3.3073 -0.21167,0.42333 -0.44979,0.8202 -0.68792,1.24354 -0.66146,0.0794 -1.21708,-0.37042 -1.85208,-0.52917 -0.29104,-0.10583 -0.55563,-0.23812 -0.79375,-0.42333 0.15875,-1.21709 -0.10583,-2.38125 0,-3.59834 z" id="path28" style="fill:#cc0f1c;stroke-width:0.264583"/>
    <path class="st28" d="m 224.07562,145.29908 c 1.45521,0 2.98979,-0.13229 4.41854,0.21167 0.26459,1.32291 -0.0264,2.67229 -0.13229,3.9952 -0.0529,0.37042 0.29104,0.60855 0.47625,0.87313 -0.21166,0.0794 -0.44979,0.13229 -0.66146,0.21167 -1.61395,-0.15875 -3.25437,-0.0529 -4.86833,-0.0794 0.26458,-1.74625 0.58208,-3.43958 0.76729,-5.21229 z" id="path29" style="fill:#b01d26;stroke-width:0.264583"/>
    <path class="st29" d="m 228.49416,145.51075 c 1.19063,0.0265 2.3548,0.15875 3.4925,0.42333 -0.13229,1.05833 -0.39687,2.09021 -0.34395,3.14854 0,0.60854 0.1852,1.27 -0.15875,1.79917 -1.11125,-0.15875 -2.2225,-0.15875 -3.33375,-0.29104 0.21166,-0.0794 0.42333,-0.15875 0.66145,-0.21167 -0.1852,-0.26458 -0.52916,-0.50271 -0.47625,-0.87313 0.10584,-1.32291 0.39688,-2.64583 0.15875,-3.9952 z" id="path30" style="fill:#b91922;stroke-width:0.264583"/>
    <path class="st30" d="m 231.98666,145.93408 c 1.64042,0.21167 3.20146,0.79375 4.7625,1.32292 v 0.10583 c 0.0794,1.50812 0.50271,3.04271 0.10584,4.55083 -0.89959,-0.23812 -1.82563,-0.34396 -2.72521,-0.55562 -0.87313,-0.26459 -1.74625,-0.39688 -2.64583,-0.47625 0.34395,-0.55563 0.15875,-1.21709 0.15875,-1.79917 -0.0529,-1.05833 0.21166,-2.09021 0.34395,-3.14854 m -23.15104,9.8425 c 1.50813,-0.52917 3.06917,-0.92604 4.65667,-1.19063 0,1.42875 -0.42333,2.77813 -0.50271,4.20688 -0.0265,1.21708 -0.58208,2.32833 -0.68792,3.54542 -0.10583,1.21708 -0.13229,2.67229 -1.19062,3.41312 0.23813,0.21167 0.50271,0.39688 0.74083,0.55563 -1.82562,0.26458 -3.62479,0.635 -5.3975,1.1377 0.60855,-2.91041 1.77271,-5.68854 1.98438,-8.67833 0.0794,-1.00542 0.26458,-1.98437 0.39687,-2.98979 z" id="path31" style="fill:#c5131e;stroke-width:0.264583"/>
    <path class="st31" d="m 212.32812,147.38929 c 0.84667,-0.47625 1.77271,-0.79375 2.72521,-0.9525 0.0529,0.18521 0.13229,0.39687 0.18521,0.58208 -0.21167,0.47625 -0.29104,1.03188 -0.23813,1.56104 0.0794,0.84667 -0.13229,1.66688 -0.37041,2.48709 l 0.18521,0.23812 0.10583,0.13229 c -0.92604,0.0794 -1.85208,0.23813 -2.75167,0.47625 -0.29104,-1.48166 0.18521,-3.01625 0.15875,-4.52437 z" id="path32" style="fill:#bf1520;stroke-width:0.264583"/>
    <path class="st32" d="m 208.83562,149.95575 c 0.89959,-1.16417 2.11667,-2.06375 3.51896,-2.56646 0,1.50812 -0.44979,3.04271 -0.15875,4.55083 -1.37583,0.26458 -2.69875,0.76729 -4.07458,1.03188 0.34396,-0.97896 0.0529,-2.14313 0.71437,-3.01625 z" id="path33" style="fill:#ca101c;stroke-width:0.264583"/>
    <path class="st33" d="m 236.74916,147.36283 c 1.4023,0.50271 2.61938,1.37583 3.51896,2.54 0.68792,0.87312 0.39688,2.03729 0.55563,3.06917 -1.32292,-0.37042 -2.61938,-0.7673 -3.96875,-1.05834 0.39687,-1.50812 -0.0265,-3.04271 -0.10584,-4.55083 z" id="path34" style="fill:#d30c18;stroke-width:0.264583"/>
    <path class="st34" d="m 219.3925,150.67012 c 1.29646,-0.13229 2.59291,-0.21167 3.91583,-0.15875 1.61396,0.0265 3.25438,-0.0529 4.86833,0.0794 1.11125,0.13229 2.2225,0.13229 3.33375,0.29104 0.89959,0.0529 1.77271,0.21166 2.64584,0.47625 -1.50813,-0.0794 -3.01625,-0.37042 -4.55084,-0.52917 -1.05833,0 -2.11666,-0.0794 -3.14854,-0.23812 -2.56646,-0.0794 -5.10646,0.0264 -7.64646,0.3175 -0.66145,0.13229 -1.34937,0.1852 -2.01083,0.15875 0.84667,-0.18521 1.71979,-0.3175 2.59292,-0.39688 z" id="path35" style="fill:#6d0a10;stroke-width:0.264583"/>
    <path class="st35" d="m 220.53021,153.68637 c 2.14312,-0.10583 4.25979,-0.26458 6.40291,-0.13229 0.87313,0.18521 1.77271,0.0794 2.64584,0.13229 1.50812,0.21167 3.01625,0.3175 4.52437,0.55563 l -0.21167,0.0529 c -0.635,0 -1.27,-0.10583 -1.87854,0.10584 -0.3175,0.44979 -0.50271,0.97895 -0.47625,1.53458 -0.0794,1.66687 -0.55562,3.28083 -1.08479,4.84187 -0.23812,0.82021 -0.89958,1.42875 -1.16417,2.24896 -0.26458,0.82021 -0.58208,1.56104 -0.87312,2.32834 -3.09563,0.0529 -6.19125,-0.0529 -9.28688,0.0794 1.4023,-3.81 2.56646,-7.72583 3.43959,-11.69458 -0.66146,-0.0529 -1.34938,-0.0794 -2.03729,-0.0529 m -11.13896,16.21896 c 1.34937,-0.29104 2.69875,-0.635 4.07458,-0.71438 0.50271,-0.0264 1.03188,-0.0794 1.53458,-0.10583 -0.8202,2.14313 -1.85208,4.18042 -2.80458,6.24417 l -0.0265,0.0794 c -1.16416,0.0529 -2.32833,0.39688 -3.4925,0.39688 -0.13229,-0.21167 -0.39687,-0.39688 -0.3175,-0.68792 0.23813,-1.21708 0.58209,-2.40771 1.03188,-3.57187 0.18521,-0.50271 0.0529,-1.0848 0,-1.64042 z" id="path36" style="fill:#b31b25;stroke-width:0.264583"/>
    <path class="st36" d="m 216.74666,153.97741 c 0.52917,-0.0794 1.05834,-0.10583 1.5875,-0.0794 h 0.68792 c -0.50271,3.99521 -1.42875,7.9375 -2.75167,11.72104 l -0.0794,0.18521 c -1.45521,0.0265 -2.88396,0.3175 -4.31271,0.47625 -0.26458,-0.18521 -0.50271,-0.37042 -0.74083,-0.55563 1.08479,-0.76729 1.08479,-2.24896 1.19062,-3.41312 0.10584,-1.19063 0.66146,-2.32834 0.68792,-3.54542 0.0529,-1.40229 0.50271,-2.77812 0.50271,-4.20687 1.05833,-0.3175 2.16958,-0.34396 3.22791,-0.58209 z" id="path37" style="fill:#b41b24;stroke-width:0.264583"/>
    <path class="st37" d="m 232.03958,154.40075 c 0.60854,-0.18521 1.24354,-0.0794 1.87854,-0.10584 1.37584,0.15875 2.72521,0.44979 4.07459,0.79375 -0.18521,1.24354 0,2.48709 -0.1323,3.73063 -0.26458,1.05833 -0.66145,2.06375 -0.76729,3.14854 -0.635,1.27 -0.9525,2.64583 -1.40229,3.96875 -2.38125,-0.3175 -4.78896,-0.42333 -7.19667,-0.60854 0.29105,-0.76729 0.58209,-1.56104 0.87313,-2.32834 0.29104,-0.76729 0.92604,-1.42875 1.16417,-2.24895 0.52916,-1.56105 0.97895,-3.175 1.08479,-4.84188 -0.0794,-0.52917 0.0794,-1.05833 0.42333,-1.50812 z" id="path38" style="fill:#c7121d;stroke-width:0.264583"/>
    <path class="st38" d="m 204.99917,157.62866 c 1.05833,-0.97896 2.54,-1.32291 3.83645,-1.85208 -0.15875,1.00542 -0.3175,1.98437 -0.39687,2.98979 -0.21167,2.98979 -1.40229,5.76792 -1.98438,8.67833 -1.29645,0.34396 -2.51354,0.87313 -3.6777,1.53459 l -0.42334,0.0529 c 1.03188,-1.27 1.50813,-2.8575 1.905,-4.41854 0.47625,-2.30187 0.71438,-4.65666 0.74084,-6.985 z" id="path39" style="fill:#d60b17;stroke-width:0.264583"/>
    <path class="st39" d="m 190.5,156.80845 0.0265,-0.0529 c 1.69333,4.60375 4.18041,8.94291 7.56708,12.51479 -1.82562,-0.0529 -3.65125,0.15875 -5.47687,0.21167 -1.11125,1.37583 -2.06375,2.91041 -3.28084,4.20687 -1.61396,-3.22792 -3.04271,-6.58812 -3.96875,-10.08062 1.19063,-1.16417 1.74625,-2.80459 3.01625,-3.91584 0.89959,-0.79375 1.37584,-1.95791 2.11667,-2.88396 z" id="path40" style="fill:#b21c22;stroke-width:0.264583"/>
    <path class="st40" d="m 216.24396,165.64554 c 0.9525,-0.0529 1.93145,-0.15875 2.91041,-0.21167 3.09563,-0.13229 6.19125,-0.0265 9.28688,-0.0794 2.40771,0.21166 4.81541,0.3175 7.19666,0.60854 0.42334,0.0529 0.84667,0.15875 1.27,0.26458 -1.24354,0.0529 -2.46062,-0.34396 -3.70416,-0.3175 -1.11125,-0.26458 -2.24896,-0.18521 -3.38667,-0.26458 -2.83104,-0.37042 -5.715,-0.15875 -8.5725,-0.21167 -1.69333,0.26458 -3.38667,0.15875 -5.08,0.39688 z" id="path41" style="fill:#64080d;stroke-width:0.264583"/>
    <path class="st41" d="m 218.78396,168.50304 c 1.50812,0.0794 2.98979,-0.21167 4.49791,-0.21167 1.53459,0.0529 3.09563,-0.0794 4.63021,0.13229 1.24354,0.21167 2.54,-0.0529 3.78354,0.26459 1.79917,0.10583 3.57188,0.34395 5.34459,0.60854 l 0.26458,0.18521 c -1.00542,-0.0794 -2.01083,-0.26459 -3.04271,-0.37042 -2.48708,-0.3175 -4.97417,-0.50271 -7.46125,-0.55563 -1.29646,-0.15875 -2.61937,-0.1852 -3.91583,-0.0529 -1.71979,0.18521 -3.46604,0.0265 -5.18584,0.34396 -0.89958,0.10583 -1.7727,0.21166 -2.67229,0.29104 -0.50271,0.0529 -1.03187,0.0794 -1.53458,0.10583 0.37042,-0.29104 0.82021,-0.21167 1.27,-0.26458 1.29646,-0.18521 2.67229,-0.29104 4.02167,-0.47625 z" id="path42" style="fill:#72090f;stroke-width:0.264583"/>
    <path class="st42" d="m 217.67271,168.79408 c 1.71979,-0.29104 3.46604,-0.15875 5.18583,-0.34396 1.29646,-0.13229 2.61937,-0.10583 3.91583,0.0529 -1.82562,1.64041 -2.83104,3.99521 -4.65666,5.63562 0.0529,0.55563 0.84666,0.37042 1.24354,0.50271 -1.74625,0.15875 -3.51896,0 -5.23875,0.23813 -0.97896,0.10583 -1.95792,0.10583 -2.96334,0.1852 l -0.68791,-0.0264 c 1.08479,-2.06375 2.27541,-4.10105 3.20146,-6.24417 z" id="path43" style="fill:#b61a24;stroke-width:0.264583"/>
    <path class="st43" d="m 226.77437,168.50304 c 2.48709,0.0529 5.00063,0.23812 7.46125,0.55562 -0.29104,0.68792 -1.00541,0.97896 -1.61396,1.29646 -1.00541,0.44979 -1.53458,1.48167 -2.38125,2.09021 -0.76729,0.71437 -1.82562,1.03187 -2.46062,1.87854 0.89958,0.21167 1.85208,0.15875 2.75167,0.39688 -2.38125,0.0529 -4.7625,-0.15875 -7.14375,-0.10584 -0.42334,-0.13229 -1.19063,0.0794 -1.24355,-0.50271 1.82563,-1.61395 2.83105,-3.94229 4.63021,-5.60916 z" id="path44" style="fill:#ca111c;stroke-width:0.264583"/>
    <path class="st44" d="m 234.23562,169.08512 c 1.00542,0.10583 2.01084,0.29104 3.04271,0.37042 2.59292,0.39687 5.15938,1.05833 7.62,1.98437 -0.87312,0.82021 -0.9525,2.09021 -1.64042,3.01625 -0.42333,0.55563 -0.79375,1.13771 -1.11125,1.74625 -2.59291,-0.50271 -5.18583,-0.87312 -7.8052,-1.11125 -1.27,-0.21166 -2.56646,-0.0529 -3.81,-0.34396 -0.89959,-0.26458 -1.85209,-0.1852 -2.72521,-0.39687 0.635,-0.84667 1.69333,-1.16417 2.46062,-1.87854 0.87313,-0.635 1.40229,-1.64042 2.38125,-2.09021 0.58209,-0.3175 1.29646,-0.60854 1.5875,-1.29646 z" id="path45" style="fill:#dd0814;stroke-width:0.264583"/>
    <path class="st45" d="m 206.0575,170.80491 c 1.11125,-0.3175 2.2225,-0.66146 3.33375,-0.89958 0.0529,0.55562 0.18521,1.11125 0,1.66687 -0.44979,1.16417 -0.79375,2.3548 -1.03188,3.57188 -0.0794,0.26458 0.18521,0.47625 0.3175,0.68792 l 0.10584,0.13229 c -1.40229,0.0265 -2.69875,0.635 -4.07459,0.74083 0.21167,-0.87312 0.23813,-1.79917 0.50271,-2.67229 0.26459,-1.05833 0.74084,-2.06375 0.82021,-3.175 z" id="path46" style="fill:#c4131e;stroke-width:0.264583"/>
    <path class="st46" d="m 243.25791,174.45616 c 0.71438,-0.92604 0.79375,-2.19604 1.64042,-3.01625 1.32292,0.55563 2.67229,1.13771 3.81,2.01084 0.66146,0.52916 1.11125,1.27 1.27,2.11666 0.23813,1.29646 0.55563,2.61938 0.71438,3.91584 -2.54,-1.77271 -5.58271,-2.61938 -8.5725,-3.28084 0.3175,-0.60854 0.68791,-1.19062 1.1377,-1.74625 z" id="path47" style="fill:#eb020f;stroke-width:0.264583"/>
    <path class="st47" d="m 212.11646,185.51575 c 0.9525,-0.21167 1.93145,0.10583 2.61937,0.79375 0.9525,1.03187 0.87313,2.91041 -0.29104,3.75708 -1.32292,1.11125 -3.65125,0.58208 -4.20687,-1.08479 -0.50271,-1.34938 0.1852,-2.8575 1.56104,-3.36021 0.0794,-0.0529 0.18521,-0.0794 0.3175,-0.10583 m -58.92271,1.32291 c 4.04812,0.0529 8.09625,0 12.14437,0.0265 2.01084,-0.0265 4.1275,0.0265 5.97959,0.92604 1.50812,0.76729 2.80458,2.16959 3.04271,3.88938 -1.21709,-0.68792 -2.51355,-1.32292 -3.91584,-1.53459 -3.14854,-0.52916 -6.35,-0.13229 -9.525,-0.34395 0.55563,0.8202 0.47625,1.82562 0.635,2.75166 0.10584,1.11125 0.0265,2.2225 0.0265,3.33375 1.03188,0.0265 2.06375,-0.0265 3.09563,0.0265 0.52916,0.10583 1.05833,0.18521 1.5875,0.21167 1.905,0.50271 3.46604,1.82562 4.3127,3.59833 -1.16416,-0.68792 -2.51354,-1.03187 -3.88937,-1.00542 -1.69333,0 -3.41313,0.0265 -5.10646,0.0265 0.0265,3.33375 -0.0529,6.64104 0.0529,9.97479 0,0.89959 0.50271,2.0373 1.53458,2.0373 2.38125,0.0264 4.7625,0 7.14375,0 1.66688,0 3.43958,-0.58209 4.49792,-1.98438 -0.0265,1.19063 0.10583,2.56646 -0.74084,3.51896 -0.92604,1.21708 -2.54,1.50812 -3.96875,1.50812 -4.20687,0 -8.4402,0 -12.64708,0 -0.66146,-0.0265 -1.11125,-0.58208 -1.34937,-1.1377 -0.50271,-1.21709 -0.50271,-2.56646 -0.50271,-3.86292 0,-5.50333 0,-10.98021 0,-16.48354 -0.0529,-2.03729 -0.89959,-4.02167 -2.40771,-5.47688 m 98.58375,6.27063 c 2.43416,-1.34938 4.41854,-3.41313 5.95312,-5.715 0,1.64041 0,3.28083 0,4.92125 1.56104,0 3.14854,0 4.70959,0 0,1.11125 0.0265,2.24896 0,3.38666 -1.4023,-0.84666 -3.09563,-0.97895 -4.70959,-0.89958 -0.0265,4.92125 0,9.81604 0,14.73729 -0.0265,1.66688 0.79375,3.25438 2.19604,4.18042 -1.82562,0 -3.65125,0 -5.50333,0 -0.87312,0.0794 -1.34937,-0.79375 -1.64042,-1.48167 -0.39687,-1.32291 -0.3175,-2.72521 -0.3175,-4.10104 0,-4.445 0,-8.91646 0,-13.36146 -1.16416,-0.10583 -2.32833,-0.0265 -3.51895,-0.0794 0.87312,-0.66146 1.93145,-1.00542 2.83104,-1.61396 m -33.41688,-0.79375 c 1.34938,0 2.69875,-0.0265 4.07459,0 0.84666,0.10583 1.79916,0.39687 2.24895,1.19062 0.52917,0.82021 0.58209,1.85209 0.84667,2.77813 0.50271,-1.61396 1.53458,-3.175 3.20146,-3.73063 0.97896,-0.10583 2.06375,-0.21166 2.96333,0.26459 0.58209,0.3175 1.19063,0.84666 1.16417,1.5875 0,1.05833 0,2.11666 0,3.175 -0.58208,-0.42334 -1.11125,-0.92604 -1.79917,-1.16417 -0.87312,-0.39687 -1.82562,-0.34396 -2.75166,-0.23812 -1.32292,0.37041 -2.54,1.32291 -2.77813,2.7252 0,3.54542 0,7.09084 0,10.63625 0.0265,1.64042 0.89958,3.12209 2.11667,4.20688 -1.82563,0.0265 -3.65125,0 -5.45042,0 -0.58208,0.0529 -1.03187,-0.42333 -1.27,-0.92604 -0.50271,-1.08479 -0.58208,-2.32834 -0.58208,-3.4925 0,-4.20688 0,-8.41375 0,-12.64709 0.0529,-1.66687 -0.55563,-3.43958 -1.98438,-4.36562 m -42.83604,0 c 1.64042,0.0794 3.36021,-0.26458 4.94771,0.3175 1.40229,0.58208 1.98438,2.11667 2.16958,3.51896 0.55563,-1.56104 1.69334,-2.96334 3.28084,-3.57188 3.01625,-1.11125 6.93208,0.3175 8.01687,3.46604 0.60854,-1.03187 1.13771,-2.19604 2.16959,-2.88395 1.85208,-1.32292 4.36562,-1.05834 6.37645,-0.23813 1.82563,0.79375 3.01625,2.61938 3.01625,4.63021 0.0265,4.07458 0,8.14917 0.0265,12.22375 0.0529,1.56104 0.9525,2.93687 2.09021,3.94229 -1.905,0.0265 -3.78354,0.0265 -5.68854,0 -0.52917,0 -0.87313,-0.50271 -1.11125,-0.92604 -0.58208,-1.24354 -0.60854,-2.61938 -0.58208,-3.96875 0,-3.38667 0.0264,-6.77333 0,-10.16 -0.1323,-1.71979 -1.87855,-2.96333 -3.54542,-2.75167 -1.16417,0.26459 -2.35479,1.08479 -2.54,2.32834 -0.0529,3.75708 0.10583,7.4877 0.0529,11.24479 -0.0265,1.64041 0.89958,3.12208 2.11666,4.20687 -1.87854,0.0529 -3.78354,0.0265 -5.66208,0 -0.52917,0.0529 -0.87313,-0.44979 -1.11125,-0.84666 -0.39688,-0.82021 -0.58208,-1.74625 -0.58208,-2.6723 0,-3.6777 0,-7.35541 0,-11.05958 0.0265,-1.03187 -0.4498,-2.03729 -1.29646,-2.67229 -1.53459,-1.27 -4.1275,-0.37042 -4.81542,1.40229 -0.0794,3.88938 0,7.75229 -0.0265,11.64167 -0.0529,1.71979 0.9525,3.28083 2.24896,4.31271 -1.85208,-0.0265 -3.67771,0.0265 -5.52979,-0.0265 -0.635,-0.0529 -1.19063,-0.44979 -1.42875,-1.03188 -0.39688,-0.74083 -0.39688,-1.61396 -0.58208,-2.40771 -0.0529,-4.73604 0,-9.44562 -0.0265,-14.18166 -0.0265,-1.48167 -0.71438,-3.01625 -1.98438,-3.83646 m 33.91959,1.29646 c -0.26459,-0.50271 -0.79375,-0.79375 -1.03188,-1.32292 1.64042,0.10583 3.36021,-0.23812 4.94771,0.29104 1.11125,0.42334 1.61396,1.61396 1.905,2.69875 0.10583,1.05834 0.13229,2.11667 0.10583,3.175 -0.0529,3.54542 -0.0265,7.06438 -0.0265,10.60979 -0.0265,1.82563 0.79375,3.54542 2.24896,4.65667 -1.85208,0 -3.70417,0 -5.55625,0 -0.79375,0.0794 -1.27,-0.68792 -1.48166,-1.32292 -0.50271,-1.40229 -0.4498,-2.96333 -0.4498,-4.41854 -0.0264,-3.09562 0.0794,-6.16479 0.0529,-9.26041 -0.0265,-1.69334 0.18521,-3.51896 -0.74083,-5.05355 m 25.74395,0.21167 c 2.48709,-1.56104 5.715,-2.06375 8.46667,-0.87312 1.69333,0.74083 3.28083,2.2225 3.41313,4.15395 0,3.67771 0,7.35542 0,11.03313 -0.0265,1.29646 0,2.64583 0.68791,3.81 0.34396,0.74083 1.05834,1.21708 1.48167,1.905 -1.905,-0.29104 -3.86292,-0.0529 -5.76792,-0.18521 -0.87312,-0.26458 -1.21708,-1.29646 -1.37583,-2.11667 l -0.29104,0.0529 c -0.89959,1.5875 -2.77813,2.2225 -4.49792,2.19604 -1.50812,-0.13229 -3.14854,-0.52916 -4.20687,-1.69333 -1.16417,-1.13771 -1.37584,-2.8575 -1.24355,-4.39208 0.1323,-1.4023 0.74084,-2.72521 1.74625,-3.73063 1.66688,-1.74625 3.99521,-2.59292 6.13834,-3.54542 1.08479,-0.5027 2.16958,-1.27 2.54,-2.43416 0.26458,-0.84667 0.21166,-1.87854 -0.47625,-2.51354 -0.87313,-0.87313 -2.19604,-0.87313 -3.33375,-0.74084 -1.48167,0.3175 -2.56646,1.53459 -3.25438,2.80459 -0.0265,-1.24355 0,-2.48709 -0.0265,-3.73063 m 3.20146,9.97479 c -1.29646,1.13771 -2.01083,2.83104 -1.93146,4.55084 -0.0529,0.97895 0.39688,2.01083 1.27,2.51354 0.7673,0.47625 1.74625,0.42333 2.59292,0.29104 0.71438,-0.29104 1.74625,-0.74083 1.61396,-1.64042 -0.0265,-2.77812 0,-5.55625 0,-8.36083 -1.05833,1.03187 -2.48708,1.5875 -3.54542,2.64583 m 27.35792,-9.15458 c 2.56646,-2.75167 7.09083,-3.175 10.23937,-1.29646 1.61396,0.92604 2.46063,2.77813 2.11667,4.63021 -0.50271,2.24896 -2.27542,3.91583 -4.10104,5.13292 -1.71979,1.16416 -3.99521,1.56104 -5.29167,3.30729 0.0794,1.64041 0.9525,3.33375 2.35479,4.23333 1.05834,0.68792 2.40771,0.66146 3.6248,0.50271 1.42875,-0.37042 2.54,-1.48167 3.30729,-2.69875 0.0529,1.29646 0.0265,2.56646 0.0265,3.86292 -1.69334,1.16416 -3.78355,1.32291 -5.76792,1.50812 -2.38125,-0.0265 -4.86833,-0.76729 -6.58813,-2.48708 -2.2225,-2.06375 -3.175,-5.18584 -3.09562,-8.14917 0.0529,-3.09562 0.97896,-6.32354 3.175,-8.54604 m 3.99521,0.18521 c -0.97896,1.29646 -1.16417,2.96333 -1.40229,4.49791 -0.1323,1.50813 -0.1323,3.04271 -0.0265,4.55084 1.00541,-0.87313 2.24896,-1.42875 3.14854,-2.38125 1.34937,-1.34938 2.09021,-3.175 2.06375,-5.08 -0.0529,-0.74084 -0.21167,-1.5875 -0.82021,-2.06375 -0.9525,-0.66146 -2.24896,-0.42334 -2.96333,0.47625 m 15.00187,-2.46063 c 2.54,-0.52916 5.21229,0 7.32896,1.48167 0,1.24354 0.0265,2.46062 -0.0265,3.70417 -0.68791,-1.42875 -1.98437,-2.64584 -3.57187,-2.96334 -1.05834,-0.21166 -2.32834,-0.10583 -3.14854,0.66146 -0.71438,0.71438 -0.52917,1.905 0.0794,2.61938 0.76729,0.9525 1.95792,1.37583 2.96333,2.03729 1.82563,1.11125 3.75709,2.40771 4.55084,4.49791 0.79375,2.09021 0.58208,4.63021 -0.87313,6.40292 -1.48166,1.93146 -3.88937,2.8575 -6.27062,2.98979 -1.87854,-0.13229 -3.75709,-0.52916 -5.37104,-1.50812 -0.0265,-1.32292 -0.0265,-2.67229 0,-3.99521 0.66145,1.34937 1.74625,2.64583 3.28083,3.01625 1.93146,0.42333 4.31271,-0.60854 4.84187,-2.61938 0.42334,-1.4552 -0.55562,-2.88395 -1.7727,-3.59833 -1.7198,-1.00542 -3.51896,-1.95792 -4.86834,-3.43958 -1.37583,-1.42875 -1.87854,-3.54542 -1.53458,-5.45042 0.52917,-2.01083 2.43417,-3.33375 4.36562,-3.81 m -64.66416,28.73375 c 3.28083,-1.37583 7.01146,-1.5875 10.4775,-0.82021 3.01625,0.66146 5.63562,2.48709 7.69937,4.73604 -1.56104,1.53459 -3.14854,3.01625 -4.7625,4.47146 -0.9525,-0.92604 -1.93146,-1.905 -3.20146,-2.40771 -2.48708,-1.16416 -5.52979,-1.08479 -7.88458,0.34396 -2.32833,1.34938 -3.73062,3.94229 -4.10104,6.58813 -0.18521,2.11666 -0.10583,4.3127 0.84667,6.24416 1.11125,2.48709 3.4925,4.47146 6.24416,4.78896 3.04271,0.50271 6.16479,-0.87312 8.09625,-3.22792 1.5875,1.53459 3.28084,2.96334 4.7625,4.5773 -1.56104,1.5875 -3.30729,3.0427 -5.37104,3.94229 -2.77812,1.19062 -5.87375,1.45521 -8.86354,1.05833 -3.28083,-0.44979 -6.42938,-1.95792 -8.73125,-4.36562 -2.03729,-1.95792 -3.25437,-4.60375 -3.94229,-7.3025 -0.29104,-1.50813 -0.42333,-3.01625 -0.44979,-4.55084 0.18521,-1.95791 0.42333,-3.96875 1.21708,-5.82083 1.45521,-3.73062 4.31271,-6.69396 7.96396,-8.255 m -64.47896,-0.52917 c 6.985,0 13.99646,0 20.98146,0 0,2.11667 0.0265,4.23334 -0.0265,6.35 -4.68312,-0.0265 -9.36625,0 -14.04937,0 0.0264,2.0373 -0.0265,4.04813 0.0264,6.08542 2.93688,-0.0265 5.87375,-0.0265 8.81063,0 0,2.06375 0,4.1275 0,6.19125 -2.93688,0 -5.87375,0 -8.83708,0 -0.0265,3.88937 0,7.77875 0,11.66812 -2.30188,0.0529 -4.63021,0 -6.93209,0.0265 0.0529,-10.10708 0.0529,-20.21416 0.0265,-30.32125 m 29.15708,0.10584 c 1.85209,-0.15875 3.73063,-0.0265 5.58271,-0.0529 4.28625,10.08063 8.62542,20.16125 12.85875,30.26833 -2.46062,0 -4.94771,0.0529 -7.40833,-0.0265 -0.89958,-2.19604 -1.82563,-4.36562 -2.80458,-6.5352 -3.6248,0.0265 -7.24959,0 -10.87438,0 -0.92604,2.16958 -1.85208,4.36562 -2.80458,6.56166 -2.46063,0 -4.92125,0 -7.38188,-0.0265 3.28084,-7.62 6.50875,-15.29291 9.78959,-22.93937 1.00541,-2.43417 2.14312,-4.81542 3.0427,-7.24958 m 2.72521,9.71021 c -0.97896,2.56645 -1.98437,5.10645 -3.12208,7.61999 2.14312,0.0794 4.31271,0.0265 6.45583,0.0265 -1.00541,-2.56646 -2.16958,-5.08 -3.06916,-7.69937 l -0.26459,0.0529 m 53.78979,-9.81605 c 2.30188,0.0529 4.63021,-0.0264 6.93209,0.0529 -0.0265,5.29167 0,10.60979 0,15.90146 0,2.03729 -0.18521,4.20687 0.79375,6.05896 0.66145,1.42875 2.11666,2.30187 3.65125,2.54 1.93145,0.29104 4.18041,0.0529 5.63562,-1.37584 1.29646,-1.37583 1.50813,-3.38666 1.66688,-5.18583 0,-6.00604 0,-11.98562 0,-17.99167 2.27541,0.0265 4.55083,0 6.82625,0 0,6.42938 0.0265,12.88521 0,19.31459 -0.0529,3.0427 -1.03188,6.2177 -3.28084,8.36083 -2.32833,2.24896 -5.66208,3.14854 -8.83708,3.22792 -3.12208,0.10583 -6.40292,-0.47625 -8.96938,-2.30188 -1.87854,-1.40229 -3.25437,-3.36021 -3.86291,-5.63562 -0.0794,-0.3175 -0.13229,-0.60855 -0.23813,-0.92605 -0.44979,-2.30187 -0.29104,-4.65666 -0.3175,-6.985 0,-5.02708 -0.0265,-10.05416 0,-15.05479 m 29.79209,0.0265 c 4.02166,-0.0794 8.01687,0 12.03854,-0.0265 2.88396,0.0794 5.90021,0.52917 8.28146,2.2225 1.85208,1.24355 3.06916,3.33375 3.43958,5.5298 0.15875,0.76729 0.10583,1.53458 0.26458,2.30187 -0.13229,1.95792 -0.44979,4.02167 -1.5875,5.66208 -1.45521,2.2225 -4.02166,3.43959 -6.56166,3.94229 -2.93688,0.635 -5.95313,0.39688 -8.91646,0.4498 -0.0265,3.38666 0,6.77333 0,10.16 -2.30188,-0.0265 -4.63021,0.0264 -6.93209,-0.0265 0,-10.08063 0,-20.13479 0,-30.21542 m 6.93209,6.29709 c 0,2.51354 0,5.00062 0,7.51416 2.64583,-0.13229 5.42396,0.42333 7.91104,-0.66146 2.11667,-0.9525 2.48708,-4.10104 0.87312,-5.68854 -1.00541,-0.87312 -2.38125,-1.13771 -3.6777,-1.19062 -1.69334,0.0265 -3.38667,0.0265 -5.10646,0.0265 z" id="path48" style="fill:#d71921;stroke-width:0.264583"/>
  </g>
</svg>