<svg xmlns="http://www.w3.org/2000/svg" xmlns:xlink="http://www.w3.org/1999/xlink" version="1.1" id="Layer_1" x="0px" y="0px" enable-background="new 0 0 481.477 253.488" xml:space="preserve" viewBox="16.04 11 446.44 221.9">
<g>
	<linearGradient id="SVGID_1_" gradientUnits="userSpaceOnUse" x1="71.5776" y1="121.9458" x2="359.9321" y2="121.9458">
		<stop offset="0" style="stop-color:#000000"/>
		<stop offset="0.0237" style="stop-color:#000000"/>
		<stop offset="0.0653" style="stop-color:#000000"/>
		<stop offset="0.1197" style="stop-color:#010D22"/>
		<stop offset="0.1851" style="stop-color:#102B4E"/>
		<stop offset="0.2589" style="stop-color:#004C91"/>
		<stop offset="0.2753" style="stop-color:#0054A6"/>
		<stop offset="0.3252" style="stop-color:#0061AF"/>
		<stop offset="0.4317" style="stop-color:#0081C7"/>
		<stop offset="0.5169" style="stop-color:#009DDF"/>
		<stop offset="0.7978" style="stop-color:#0057A8"/>
		<stop offset="1" style="stop-color:#000000"/>
	</linearGradient>
	<path fill="url(#SVGID_1_)" d="M350.22,146.453l-13.814-6.301c-0.011,0.176-0.021,0.335-0.021,0.516c0,0-8.423-0.936-10.039-2.553   c0,0,0-0.951,0.053-2.525l-4.53-2.068c0,0,4.073,23.822-31.767,41.295c0,0,8.104-0.542,27.002-17.696l-1.596,6.807l11.806-7.264   c0,0-9.083,26.321-92.115,44.241c-83.037,17.931-137.94,11.348-185.585-39.929l-0.681-0.681H46.89l-0.681,0.681v2.494   c0,0,9.301,13.612,29.948,29.947c0,0-1.138,2.276-3.403,1.139c-2.275-1.139-9.306-8.168-9.306-8.168s-0.909,2.266,0.681,3.855   c1.591,1.59,5.674,10.89,14.751,14.745c9.071,3.86,23.365,10.438,23.365,13.612c0,3.18-7.711-2.493-7.711-2.493h-1.361   c0,0,4.988,8.396,24.727,9.757s-0.224-2.723-0.224-2.723s8.614-0.451,17.691,1.819c9.077,2.265,23.594,3.85,29.496,3.85   s53.999,4.084,53.999,4.084l-2.382-2.383c0,0,19.169,1.936,27.337,1.936s22.237-6.583,38.344-6.583   c16.107,0,1.813-1.584,1.813-1.584s-41.401,1.021-46.055-3.638h25.412l-24.279-2.042v-2.488c0,0,23.365-0.229,27.226-4.084   c0,0-22.009,2.723-28.587,1.361c0,0,29.725-12.709,40.615-15.432c10.89-2.722,31.532-10.209,51.048-19.961   c-1.819,0-7.487,0-7.487,0l22.004-11.571l-8.168,0.904C335.703,167.33,348.412,155.759,350.22,146.453z M210.296,218.43   c-4.424-1.191,2.042-1.191,4.935-1.191s12.933-2.382,12.933,0.681C228.163,217.919,214.72,219.622,210.296,218.43z M435.299,45.039   v-0.904c0,0-73.509-33.128-106.636-33.128c-33.117,0-75.774-1.361-161.986,29.496L138.09,56.837c0,0,27.284-5.674,34.261-9.587   c0,0,12.251-4.765,13.103-3.914c0.851,0.851,4.424,0.341-4.425,4.084c-8.848,3.743-15.484,7.657-19.058,11.23   s-10.039,11.741-10.039,11.741s-2.244,3.557-5.589,9.135c-2.43,18.431-9.577,53.186-29.076,57.982   c-0.781,2.499-1.431,4.871-1.749,6.902c0,0,1.361,10.209,18.717,32.33v5.785l8.168,8.167c0,0,56.152,2.723,68.404,5.786   l9.188,1.531v-1.531l-4.424-2.553l1.19-1.191c0,0,12.677,0.426,15.145-2.042c2.467-2.467,8.678-3.402,12.592-4.935   c3.913-1.531,17.016-6.125,23.312-8.848s35.903-14.634,38.286-31.479c2.382-16.846,2.382-23.993,2.382-23.993l-11.454-3.03   c-1.536,2.733-4.604,8.604-5.731,13.751c0,0-8.509,0.851-11.061,0.17c-2.553-0.681-0.681-0.681-0.681-0.681   s2.488-6.556,7.189-15.298l-5.03,0.154c0,0-2.957-12.028-19.144-10.46c-1.351,2.616-2.233,5.249-2.414,7.567   c-0.851,10.89,16.846,3.402,16.846,3.402l-4.084,10.21c-7.114,5.296-13.129,5.594-17.212,2.839l-0.995,5.053   c0,0,4.312,21.1-24.726,28.129c0,0-5.445,4.541-19.059,4.541c-13.612,0-39.481-5.902-42.433-34.489l-0.437-1.36h-2.733   c0,0,1.813-17.475-9.528-17.475l-8.625,18.835l-10.891,0.904c0,0,18.148-32.894,20.643-58.759c0,0,27.002,1.361,25.864,16.788   c-0.074,1.058-0.229,2.026-0.425,2.94c1.712-1.127,6.721-4.318,13.149-7.77c0.554-2.631,0.894-5.024,0.894-6.971   c0,0,5.498-0.17,11.443,1.074c6.509-2.69,13.192-4.701,18.733-4.701l1.925-1.924c0,0,26.656-5.11,57.514,4.189l4.254,1.776   c5.478,0.425,9.188,1.798,9.188,1.798l-1.276,1.51l9.072,3.785c8.221-8.088,18.111-14.303,29.469-15.165   c0,0-2.85,4.786-6.296,12.55l8.955-1.494c2.148-4.271,4.626-8.503,7.551-12.587l9.114-1.765   c-6.072-7.791-24.386-27.502-58.003-33.288c0,0,3.403-1.585,5.445-1.585s18.377,3.403,33.351,11.348h2.488l8.402,4.765   c0,0-12.485-12.028-14.07-12.028c0,0,10.21-0.904,19.281,2.042c0,0-11.337-5.674-21.323-7.944c0,0,17.92,0.91,31.99,5.445   c0,0-4.765-3.85-18.601-8.391c0,0,1.808-4.308,34.255,6.125c0,0-21.78-12.48-43.784-14.07c0,0-2.956-2.382,2.372-2.382   c5.339,0,31.884,3.521,54.802,13.953l-7.487-5.444C385.166,28.023,394.461,27.341,435.299,45.039z M209.785,185.93   c3.914,0,20.93-1.702,18.888,0.34c0,0-15.314,1.872-19.738,1.021C204.511,186.44,205.872,185.93,209.785,185.93z M179.582,171.381   c0,0,2.808,2.808-0.255,1.276c-3.063-1.531-4.084-5.615-4.084-5.615L179.582,171.381z M161.886,159.81   c7.402,11.486,20.334,20.334,23.227,20.334s0,0,2.723,1.361c-14.293,0-25.869-19.76-26.715-20.929   C160.354,159.518,161.886,159.81,161.886,159.81z M137.979,167.042v1.021v1.191l-4.595-3.403l-0.17-2.212h1.531   c0,0,0-1.872,0.596,0.596C135.937,166.702,137.979,167.042,137.979,167.042z M309.499,49.632c16.165,0,29.097,13.103,29.097,13.103   v1.531c-10.976-10.976-29.948-13.782-29.948-13.782L309.499,49.632z M308.478,55.928c5.275,0,15.825,5.274,15.825,5.274l0.17,1.873   c-7.146-5.615-15.995-5.956-15.995-5.956V55.928z M313.412,62.564c0,0-7.487-3.742-8.849-3.742   C303.203,58.822,308.393,57.544,313.412,62.564z M239.394,36.02c2.297-2.298,5.785,0.341,5.785,0.341   c1.616,1.615-0.17,3.572-0.17,3.572S237.096,38.317,239.394,36.02z M208.424,34.829l15.145-5.615h3.743   c-7.486,4.595-19.908,7.827-19.908,7.827l-0.681-0.68L208.424,34.829z M193.109,40.103l7.317-3.062h2.042v1.191l-8.508,2.893   h-0.852V40.103z M186.304,69.541c1.701-1.701,8.508-4.083,8.508-4.083C190.812,69.457,184.602,71.243,186.304,69.541z    M172.69,74.476c0,0,1.191-0.852-0.851-0.852s8.679-6.466,8.679-6.466l-0.852,2.723l2.042-1.19c0,0,1.191,0.17,3.233,0.17   S172.69,74.476,172.69,74.476z M183.411,77.369c0,0-2.638-0.426,0-1.531c2.637-1.106,16.335-8.849,29.438-11.571   C212.849,64.266,192.429,72.604,183.411,77.369z M220.846,53.716l7.997-5.445c0,0,15.485-2.041,25.184-1.021   C254.026,47.25,230.034,49.632,220.846,53.716z M259.982,29.894c1.701-1.701,7.827,0.17,7.827,0.17   C268.66,33.297,258.28,31.595,259.982,29.894z M284.4,19.259l2.127-2.127c0,0,17.866-0.852,22.972-0.852   c5.104,0,5.274,2.723,5.274,2.723C305.925,20.875,284.4,19.259,284.4,19.259z"/>
	<path fill="#FFFFFF" stroke="#FFFFFF" stroke-width="5.4451" d="M240.456,87.121l-0.063-2.712h-2.595h-11.656h-2.664v2.776   c0,21.104-12.544,45.719-12.671,45.969l-0.926,1.797v-0.42c0-6.631-5.742-13.506-10.007-17.729   c7.21-2.02,15.559-7.242,15.559-18.195c0-5.669-2.855-13.039-16.452-16.006c-6.057-1.318-11.592-1.154-11.826-1.148l-2.579,0.085   v2.696c0,1.643-0.271,3.844-0.813,6.545c-3.143,15.654-14.32,41.291-15.665,44.338c-0.213-11.029-2.351-17.484-4.643-21.207   c4.345-1.329,10.741-4.817,12.65-14.032c0.239-1.165,0.394-2.271,0.468-3.388c0.287-4.01-0.861-7.561-3.413-10.576   c-7.243-8.561-23.717-9.518-24.413-9.556l-2.536-0.133l-0.245,2.644c-2.366,25.533-19.706,58.625-19.887,58.949l-2.398,4.551   l4.95-0.436l10.656-0.92l1.553-0.133l0.649-1.483l7.593-17.319c0.957,0.256,1.809,0.67,2.483,1.457   c2.877,3.328,2.86,10.529,2.611,13.027l-0.304,3.068h2.957h2.674h5.982h0.602l-0.054,0.106l1.404-0.106h0.712v-0.059l2.414-0.18   l9.742-0.756l1.643-0.127l0.622-1.596l3.914-10.008c6.024,1.244,9.141,8.615,9.173,8.699l0.686,1.697   c0.011,0.005,1.776,0.005,1.776,0.005h9.098h2.664v-0.106l3.233,0.053l10.985,0.17l1.563,0.027l0.787-1.409   C240.808,110.103,240.478,88.051,240.456,87.121z M154.999,101.85c0.969-3.147,1.553-6.339,1.872-8.508   c3.558,0.191,5.35,1.063,6.131,1.872c0.373,0.377,0.872,1.042,0.872,2.402c0,0.666-0.212,1.16-0.707,1.66   C161.62,100.824,158.143,101.574,154.999,101.85z M193.774,104.206c0.628-2.834,1.372-4.865,1.909-6.072   c3.626,0.516,7.316,1.909,7.316,3.312C202.639,102.483,198.629,103.738,193.774,104.206z M100.027,68.244h-2.914H86.346h-2.664   v2.775c0,11.354-3.685,22.43-4.791,25.508c-1.808,0.665-7.322,0.92-12.74,0.798c2.924-9.236,4.259-28.018,4.317-28.884l0.202-2.983   h-2.861H53.606h-2.601l-0.063,2.712c-1.063,43.826-29.853,81.75-30.847,83.048l-1.334,1.372l1.01,1.855l0.441,0.814l0.766,1.403   h1.547c7.434,0,15.569-2.681,15.91-2.797l0.616-0.202l0.458-0.479c5.37-5.615,14.899-24.779,17.186-29.453   c5.259-1.835,9.721-2.372,12.528-2.473c-3.255,10.294-12.991,26.438-13.097,26.619l-3.063,5.051l5.674-0.808l14.649-2.085   l1.037-0.148l0.665-0.852c19.988-25.454,24.497-75.646,24.678-77.768L100.027,68.244z M141.552,78.091l0.011-0.138   c0,0,0-0.149,0-0.309v-2.228l-2.079-0.484c-2.116-0.5-7.434-1.648-11.071-1.648h-2.393l-0.256,2.483   c-1.983,19.329-8.332,47.927-15.665,47.927c-0.729,0-1.196-0.033-1.516-0.064c0.085-0.766,0.319-1.988,0.543-3.116l0.085-0.437   c0.319-1.6,1.127-4.125,2.058-7.051c2.749-8.571,6.759-21.291,7.231-36.094h0.091c0.074-0.012,0.074-2.793,0.074-2.793   c0-2.711-2.345-2.881-4.839-3.057c-1.483-0.106-4.115-0.234-8.221-0.234h-2.51l-0.148,2.616   c-0.011,0.229-1.361,22.982-5.482,33.915c-3.601,9.529-5.345,18.111-5.345,26.226c0,8.184,4.084,12.337,12.156,12.337   c1.882,0.105,3.887-0.117,6.174-0.702c20.382-5.232,27.826-40.822,30.453-61.565C141.18,81.484,141.397,79.613,141.552,78.091z    M387.995,135.287l-4.36-0.287l-10.326-0.676c0.723-2.686,2.147-6.583,3.424-9.763h11.9h1.713l0.712-1.632   c6.839-15.746,5.86-16.767,4.616-18.064c-0.628-0.654-1.521-1.516-10.71-2.036c1.309-2.632,3.808-6.626,6.657-10.603h11.826h1.702   l0.712-1.606c1.67-3.755,7.679-12.183,9.849-15.112l3.328-4.488h-5.435h-24.971h-1.255l-0.797,1   c-25.971,32.543-33.404,78.656-33.713,80.602l-0.341,2.234l2.01,0.808c7.7,3.111,19.601,3.148,20.111,3.148h1.978l0.564-1.979   c1.552-5.344,8.497-17.511,8.561-17.632L387.995,135.287z M446.7,72.621c-0.191-0.176-4.69-4.377-13.283-4.377   c-9.997,0-26.311,18.547-26.311,33.202c0,8.003-0.182,15.06-0.319,20.733c-0.096,3.727-0.181,6.939-0.181,9.337   c0,1.707-0.756,3.302-2.127,4.483c-1.67,1.44-5.765,3.584-14.517,1.828l-1.936-0.393l-0.915,1.818l-7.668,15.123l-1.244,2.467   l2.361,1.298c0.298,0.159,7.316,3.967,14.059,3.967c10.284,0,29.47-9.37,29.47-27.29V98.66c0-3.095,1.883-5.992,4.69-7.211   c2.595-1.116,5.296-0.5,7.412,1.702l-0.712-0.585l2.893-3.403l8.976-13.39l0.755-1.818L446.7,72.621z M382.901,69.111h-4.765   h-16.145h-1.105l-0.776,0.812c-2.68,2.798-10.922,18.145-16.846,29.491c0.872-7.509,2.19-15.356,3.127-20.499   c0,0.016,0.723-3.876,0.723-3.855l0.341-1.732l0.786-4.074c0.011-0.01-3.902,0.777-3.902,0.777l-1.404,0.275   c0,0.006-8.923,1.809-8.923,1.809l-1.042,0.213l-0.617,0.898c-2.743,4.01-5.231,8.332-7.593,13.225   c-11.167,23.094-12.772,47.197-12.996,54.036c-0.053,1.638-0.053,2.638-0.053,2.686v1.144l0.787,0.812   c1.85,1.941,7.221,2.92,11.411,3.409l2.871,0.329l0.085-3.015c0.011-0.239,0.021-0.526,0.021-0.526   c0.191-7.316,0.628-13.129,1.159-17.755l2.329,20.956l0.202,1.818l1.69,0.521l11.826,3.652l3.17,0.984l0.233-3.445   c1.766-25.444,32.606-78.178,32.915-78.709L382.901,69.111z M326.823,77.836l2.616-4.604l-5.105,0.404   c-10.539,0.834-20.791,6.316-30.501,16.281c-9.226,9.477-16.266,21.377-20.552,29.693c-3.568,6.934-5.828,12.464-6.727,14.771   c-0.946,0.67-1.212,1.67-1.25,1.957c-0.324,2.6,2.287,3.328,3.271,3.6c2.755,0.771,9.71,0.123,11.773-0.09l1.925-0.203l0.409-1.967   c1.059-5.02,4.078-10.965,5.333-13.283c0.102-0.191,0.16-0.298,0.25-0.463c1.415-0.09,3.919,0.229,6.365,0.729   c-0.654,6.674-0.733,14.592-0.733,14.677v1.17c0.09,0.187,0.888,1.005,0.888,1.005c0.665,0.676,1.781,1.824,11.81,1.654   l2.574-0.054l0.043-2.69c0.297-19.516,6.466-37.999,11.603-50.07C324.068,82.697,326.791,77.878,326.823,77.836z M301.235,107.875   h-5.147c2.255-3.323,5.265-6.566,7.892-9.119C302.873,102.25,301.862,105.71,301.235,107.875z M270.947,116.447l-5.887,2.6   c-3.685,1.617-10.098,3.297-12.161,1.739c-0.191-0.144-0.766-0.579-0.627-2.44c0.138-1.909,0.855-4.223,2.073-6.668   c2.659-5.393,7.944-11.406,13.729-12.678c2.946-0.643,5.69,0.086,8.168,2.17l2.026,1.713l1.68-2.074l8.907-10.98l1.249-1.537   l2.462-3.025l-3.573-1.377c-0.159-0.064-4.041-1.543-9.709-2.006c-9.699-0.791-23.467,1.404-33.979,16.352   c-6.423,9.119-9.284,19.266-7.854,27.843c0.813,4.907,3.058,8.874,6.322,11.167c5.365,3.775,12.624,2.689,19.92-2.973l0.601-0.474   l0.281-0.724l3.994-10.433L270.947,116.447z"/>
	<path fill="#353437" d="M240.456,87.121l-0.063-2.712h-2.595h-11.656h-2.664v2.776c0,21.104-12.544,45.719-12.671,45.969   l-0.926,1.797v-0.42c0-6.631-5.742-13.506-10.007-17.729c7.21-2.02,15.559-7.242,15.559-18.195c0-5.669-2.855-13.039-16.452-16.006   c-6.057-1.318-11.592-1.154-11.826-1.148l-2.579,0.085v2.696c0,1.643-0.271,3.844-0.813,6.545   c-3.143,15.654-14.32,41.291-15.665,44.338c-0.213-11.029-2.351-17.484-4.643-21.207c4.345-1.329,10.741-4.817,12.65-14.032   c0.239-1.165,0.394-2.271,0.468-3.388c0.287-4.01-0.861-7.561-3.413-10.576c-7.243-8.561-23.717-9.518-24.413-9.556l-2.536-0.133   l-0.245,2.644c-2.366,25.533-19.706,58.625-19.887,58.949l-2.398,4.551l4.95-0.436l10.656-0.92l1.553-0.133l0.649-1.483   l7.593-17.319c0.957,0.256,1.809,0.67,2.483,1.457c2.877,3.328,2.86,10.529,2.611,13.027l-0.304,3.068h2.957h2.674h5.982h0.602   l-0.054,0.106l1.404-0.106h0.712v-0.059l2.414-0.18l9.742-0.756l1.643-0.127l0.622-1.596l3.914-10.008   c6.024,1.244,9.141,8.615,9.173,8.699l0.686,1.697c0.011,0.005,1.776,0.005,1.776,0.005h9.098h2.664v-0.106l3.233,0.053   l10.985,0.17l1.563,0.027l0.787-1.409C240.808,110.103,240.478,88.051,240.456,87.121z M154.999,101.85   c0.969-3.147,1.553-6.339,1.872-8.508c3.558,0.191,5.35,1.063,6.131,1.872c0.373,0.377,0.872,1.042,0.872,2.402   c0,0.666-0.212,1.16-0.707,1.66C161.62,100.824,158.143,101.574,154.999,101.85z M193.774,104.206   c0.628-2.834,1.372-4.865,1.909-6.072c3.626,0.516,7.316,1.909,7.316,3.312C202.639,102.483,198.629,103.738,193.774,104.206z    M100.027,68.244h-2.914H86.346h-2.664v2.775c0,11.354-3.685,22.43-4.791,25.508c-1.808,0.665-7.322,0.92-12.74,0.798   c2.924-9.236,4.259-28.018,4.317-28.884l0.202-2.983h-2.861H53.606h-2.601l-0.063,2.712c-1.063,43.826-29.853,81.75-30.847,83.048   l-1.334,1.372l1.01,1.855l0.441,0.814l0.766,1.403h1.547c7.434,0,15.569-2.681,15.91-2.797l0.616-0.202l0.458-0.479   c5.37-5.615,14.899-24.779,17.186-29.453c5.259-1.835,9.721-2.372,12.528-2.473c-3.255,10.294-12.991,26.438-13.097,26.619   l-3.063,5.051l5.674-0.808l14.649-2.085l1.037-0.148l0.665-0.852c19.988-25.454,24.497-75.646,24.678-77.768L100.027,68.244z    M141.552,78.091l0.011-0.138c0,0,0-0.149,0-0.309v-2.228l-2.079-0.484c-2.116-0.5-7.434-1.648-11.071-1.648h-2.393l-0.256,2.483   c-1.983,19.329-8.332,47.927-15.665,47.927c-0.729,0-1.196-0.033-1.516-0.064c0.085-0.766,0.319-1.988,0.543-3.116l0.085-0.437   c0.319-1.6,1.127-4.125,2.058-7.051c2.749-8.571,6.759-21.291,7.231-36.094h0.091c0.074-0.012,0.074-2.793,0.074-2.793   c0-2.711-2.345-2.881-4.839-3.057c-1.483-0.106-4.115-0.234-8.221-0.234h-2.51l-0.148,2.616   c-0.011,0.229-1.361,22.982-5.482,33.915c-3.601,9.529-5.345,18.111-5.345,26.226c0,8.184,4.084,12.337,12.156,12.337   c1.882,0.105,3.887-0.117,6.174-0.702c20.382-5.232,27.826-40.822,30.453-61.565C141.18,81.484,141.397,79.613,141.552,78.091z    M387.995,135.287l-4.36-0.287l-10.326-0.676c0.723-2.686,2.147-6.583,3.424-9.763h11.9h1.713l0.712-1.632   c6.839-15.746,5.86-16.767,4.616-18.064c-0.628-0.654-1.521-1.516-10.71-2.036c1.309-2.632,3.808-6.626,6.657-10.603h11.826h1.702   l0.712-1.606c1.67-3.755,7.679-12.183,9.849-15.112l3.328-4.488h-5.435h-24.971h-1.255l-0.797,1   c-25.971,32.543-33.404,78.656-33.713,80.602l-0.341,2.234l2.01,0.808c7.7,3.111,19.601,3.148,20.111,3.148h1.978l0.564-1.979   c1.552-5.344,8.497-17.511,8.561-17.632L387.995,135.287z M446.7,72.621c-0.191-0.176-4.69-4.377-13.283-4.377   c-9.997,0-26.311,18.547-26.311,33.202c0,8.003-0.182,15.06-0.319,20.733c-0.096,3.727-0.181,6.939-0.181,9.337   c0,1.707-0.756,3.302-2.127,4.483c-1.67,1.44-5.765,3.584-14.517,1.828l-1.936-0.393l-0.915,1.818l-7.668,15.123l-1.244,2.467   l2.361,1.298c0.298,0.159,7.316,3.967,14.059,3.967c10.284,0,29.47-9.37,29.47-27.29V98.66c0-3.095,1.883-5.992,4.69-7.211   c2.595-1.116,5.296-0.5,7.412,1.702l-0.712-0.585l2.893-3.403l8.976-13.39l0.755-1.818L446.7,72.621z M382.901,69.111h-4.765   h-16.145h-1.105l-0.776,0.812c-2.68,2.798-10.922,18.145-16.846,29.491c0.872-7.509,2.19-15.356,3.127-20.499   c0,0.016,0.723-3.876,0.723-3.855l0.341-1.732l0.786-4.074c0.011-0.01-3.902,0.777-3.902,0.777l-1.404,0.275   c0,0.006-8.923,1.809-8.923,1.809l-1.042,0.213l-0.617,0.898c-2.743,4.01-5.231,8.332-7.593,13.225   c-11.167,23.094-12.772,47.197-12.996,54.036c-0.053,1.638-0.053,2.638-0.053,2.686v1.144l0.787,0.812   c1.85,1.941,7.221,2.92,11.411,3.409l2.871,0.329l0.085-3.015c0.011-0.239,0.021-0.526,0.021-0.526   c0.191-7.316,0.628-13.129,1.159-17.755l2.329,20.956l0.202,1.818l1.69,0.521l11.826,3.652l3.17,0.984l0.233-3.445   c1.766-25.444,32.606-78.178,32.915-78.709L382.901,69.111z M326.823,77.836l2.616-4.604l-5.105,0.404   c-10.539,0.834-20.791,6.316-30.501,16.281c-9.226,9.477-16.266,21.377-20.552,29.693c-3.568,6.934-5.828,12.464-6.727,14.771   c-0.946,0.67-1.212,1.67-1.25,1.957c-0.324,2.6,2.287,3.328,3.271,3.6c2.755,0.771,9.71,0.123,11.773-0.09l1.925-0.203l0.409-1.967   c1.059-5.02,4.078-10.965,5.333-13.283c0.102-0.191,0.16-0.298,0.25-0.463c1.415-0.09,3.919,0.229,6.365,0.729   c-0.654,6.674-0.733,14.592-0.733,14.677v1.17c0.09,0.187,0.888,1.005,0.888,1.005c0.665,0.676,1.781,1.824,11.81,1.654   l2.574-0.054l0.043-2.69c0.297-19.516,6.466-37.999,11.603-50.07C324.068,82.697,326.791,77.878,326.823,77.836z M301.235,107.875   h-5.147c2.255-3.323,5.265-6.566,7.892-9.119C302.873,102.25,301.862,105.71,301.235,107.875z M270.947,116.447l-5.887,2.6   c-3.685,1.617-10.098,3.297-12.161,1.739c-0.191-0.144-0.766-0.579-0.627-2.44c0.138-1.909,0.855-4.223,2.073-6.668   c2.659-5.393,7.944-11.406,13.729-12.678c2.946-0.643,5.69,0.086,8.168,2.17l2.026,1.713l1.68-2.074l8.907-10.98l1.249-1.537   l2.462-3.025l-3.573-1.377c-0.159-0.064-4.041-1.543-9.709-2.006c-9.699-0.791-23.467,1.404-33.979,16.352   c-6.423,9.119-9.284,19.266-7.854,27.843c0.813,4.907,3.058,8.874,6.322,11.167c5.365,3.775,12.624,2.689,19.92-2.973l0.601-0.474   l0.281-0.724l3.994-10.433L270.947,116.447z"/>
	<path fill="#306586" d="M245.349,83.26l-0.063-2.659h-2.659h-11.911h-2.723v2.723c0,20.653-12.814,44.752-12.948,44.996   l-0.946,1.761v-0.415c0-6.487-5.87-13.219-10.226-17.351c7.37-1.978,15.899-7.094,15.899-17.813   c0-5.547-2.919-12.762-16.813-15.666c-6.189-1.291-11.848-1.127-12.087-1.121l-2.638,0.08v2.637c0,1.617-0.281,3.77-0.835,6.413   c-3.211,15.325-14.633,40.413-16.005,43.396c-0.224-10.789-2.409-17.105-4.749-20.754c4.445-1.309,10.98-4.711,12.927-13.74   c0.245-1.138,0.404-2.223,0.484-3.318c0.292-3.919-0.889-7.402-3.488-10.348c-7.407-8.381-24.242-9.316-24.955-9.358l-2.595-0.128   l-0.25,2.59c-2.414,24.992-20.138,57.381-20.318,57.705l-2.456,4.451l5.062-0.426l10.891-0.904l1.59-0.127l0.665-1.452   l7.758-16.958c0.973,0.256,1.845,0.66,2.536,1.432c2.94,3.259,2.925,10.311,2.67,12.75l-0.309,3.005h3.021h2.732h6.115h0.611   l-0.047,0.106l1.436-0.106h0.723v-0.054l2.468-0.18l9.954-0.74l1.681-0.121l0.638-1.564l3.999-9.794   c6.157,1.218,9.337,8.433,9.374,8.508l0.702,1.669c0.006,0.006,1.813,0.006,1.813,0.006h9.3h2.723v-0.106l3.303,0.048l11.23,0.17   l1.601,0.027l0.797-1.383C245.71,105.758,245.37,84.169,245.349,83.26z M158.004,97.681c0.989-3.084,1.585-6.211,1.914-8.327   c3.638,0.187,5.467,1.037,6.27,1.823c0.378,0.373,0.888,1.027,0.888,2.356c0,0.648-0.213,1.138-0.723,1.627   C164.773,96.671,161.216,97.41,158.004,97.681z M197.635,99.984c0.644-2.781,1.398-4.76,1.952-5.939   c3.706,0.5,7.476,1.866,7.476,3.232C206.69,98.298,202.597,99.527,197.635,99.984z M101.819,64.777h-2.978H87.835h-2.723V67.5   c0,11.113-3.765,21.955-4.897,24.971c-1.846,0.648-7.481,0.898-13.022,0.776c2.993-9.04,4.354-27.428,4.413-28.268l0.213-2.925   h-2.925H54.377h-2.658l-0.064,2.658c-1.085,42.902-30.511,80.023-31.532,81.283l-1.361,1.351l1.032,1.819l0.452,0.791l0.782,1.378   h1.584c7.599,0,15.91-2.627,16.261-2.743l0.628-0.197l0.468-0.469c5.493-5.492,15.229-24.252,17.569-28.825   c5.37-1.798,9.933-2.323,12.804-2.425c-3.328,10.082-13.283,25.885-13.389,26.056l-3.127,4.945l5.796-0.787l14.974-2.042   l1.059-0.148l0.675-0.83c20.43-24.918,25.04-74.046,25.227-76.125L101.819,64.777z M144.258,74.422l0.017-0.138   c0,0,0-0.149,0-0.299v-2.18l-2.127-0.479c-2.164-0.489-7.599-1.616-11.315-1.616h-2.446l-0.261,2.435   c-2.026,18.92-8.514,46.912-16.011,46.912c-0.744,0-1.223-0.027-1.553-0.064c0.085-0.744,0.33-1.946,0.559-3.041l0.09-0.426   c0.319-1.574,1.148-4.041,2.101-6.902c2.803-8.391,6.907-20.85,7.386-35.34h0.096c0.08-0.011,0.08-2.733,0.08-2.733   c0-2.653-2.398-2.817-4.945-2.988c-1.521-0.106-4.211-0.233-8.407-0.233h-2.562l-0.154,2.562c-0.016,0.223-1.388,22.504-5.6,33.197   c-3.68,9.332-5.466,17.733-5.466,25.667c0,8.019,4.18,12.081,12.421,12.081c1.926,0.106,3.978-0.111,6.317-0.691   c20.834-5.12,28.438-39.955,31.118-60.257C143.881,77.741,144.104,75.906,144.258,74.422z M396.142,130.405l-4.456-0.276   l-10.561-0.659c0.744-2.632,2.201-6.444,3.51-9.562h12.155h1.755l0.724-1.595c6.986-15.415,5.987-16.415,4.722-17.687   c-0.639-0.638-1.563-1.482-10.954-1.988c1.34-2.578,3.893-6.492,6.816-10.379h12.082h1.733l0.733-1.574   c1.702-3.68,7.838-11.922,10.061-14.793l3.403-4.393h-5.552H396.79h-1.276l-0.818,0.979c-26.545,31.861-34.149,76.996-34.457,78.9   l-0.352,2.18l2.063,0.798c7.87,3.042,20.036,3.073,20.547,3.073h2.021l0.585-1.93c1.584-5.228,8.678-17.139,8.752-17.261   L396.142,130.405z M449.826,88.322l6.977-16.164l0.766-1.787l-1.436-1.309c-0.191-0.17-4.785-4.285-13.57-4.285   c-10.22,0-26.885,18.159-26.885,32.5c0,7.838-0.181,14.751-0.33,20.303c-0.096,3.647-0.181,6.795-0.181,9.135   c0,1.67-0.776,3.233-2.19,4.393c-1.691,1.409-5.881,3.51-14.825,1.787l-1.979-0.383l-0.936,1.781l-7.827,14.803l-1.276,2.414   l2.414,1.271c0.298,0.16,7.477,3.882,14.368,3.882c10.507,0,30.118-9.173,30.118-26.715V94.554c0-3.031,1.925-5.865,4.796-7.051   c2.648-1.101,4.935-4.068,7.094-1.914 M390.931,65.627h-4.86h-16.506h-1.127l-0.798,0.798c-2.744,2.744-11.167,17.76-17.218,28.873   c0.894-7.354,2.244-15.037,3.201-20.067c0,0.011,0.733-3.797,0.733-3.78l0.341-1.691l0.818-3.988c0-0.011-3.998,0.76-3.998,0.76   l-1.437,0.277l-9.113,1.766l-1.063,0.201l-0.628,0.883c-2.818,3.925-5.36,8.157-7.774,12.943   c-11.4,22.609-13.049,46.197-13.272,52.898c-0.053,1.605-0.053,2.584-0.053,2.627v1.121l0.798,0.793   c1.893,1.898,7.391,2.86,11.666,3.339l2.936,0.319l0.085-2.946c0.011-0.239,0.021-0.521,0.021-0.521   c0.191-7.158,0.648-12.848,1.181-17.378l2.393,20.515l0.202,1.787l1.723,0.51l12.081,3.574l3.244,0.957l0.244-3.371   c1.809-24.908,33.319-76.529,33.639-77.051L390.931,65.627z M333.618,74.167l2.681-4.498l-5.222,0.393   c-10.773,0.819-21.26,6.18-31.171,15.937c-9.434,9.279-16.634,20.925-21.01,29.06c-3.653,6.791-5.961,12.209-6.875,14.469   c-0.968,0.649-1.239,1.633-1.276,1.91c-0.335,2.547,2.334,3.26,3.339,3.525c2.813,0.75,9.923,0.122,12.034-0.091l1.962-0.196   l0.425-1.931c1.074-4.903,4.169-10.726,5.445-12.996c0.106-0.191,0.17-0.298,0.261-0.452c1.446-0.09,4.004,0.219,6.503,0.707   c-0.67,6.535-0.744,14.289-0.744,14.368v1.144c0.085,0.186,0.904,0.983,0.904,0.983c0.681,0.67,1.818,1.786,12.07,1.616   l2.638-0.042l0.042-2.638c0.298-19.1,6.604-37.19,11.848-49.011C330.801,78.926,333.587,74.215,333.618,74.167z M307.468,103.573   h-5.265c2.308-3.254,5.381-6.423,8.071-8.923C309.147,98.064,308.105,101.457,307.468,103.573z M276.509,111.964l-6.02,2.547   c-3.765,1.584-10.315,3.228-12.421,1.707c-0.197-0.145-0.787-0.569-0.649-2.393c0.149-1.873,0.883-4.127,2.122-6.53   c2.723-5.28,8.12-11.161,14.032-12.405c3.01-0.633,4.127-3.213,6.658-1.17l2.627-0.703l2.85,0.687l9.104-7.796l1.276-1.499   l2.521-2.968l-3.647-1.35c-0.171-0.059-4.138-1.51-9.928-1.957c-9.912-0.776-23.987,1.371-34.729,16.006   c-6.562,8.922-9.486,18.855-8.029,27.252c0.835,4.807,3.126,8.688,6.46,10.933c5.482,3.695,12.906,2.632,20.361-2.909l0.616-0.463   l0.287-0.717l4.084-10.21L276.509,111.964z"/>
	<path fill="none" stroke="#306586" stroke-width="5.4451" d="M182.358,95.171c0.196-0.914,0.351-1.883,0.425-2.94   c1.138-15.427-25.864-16.788-25.864-16.788c-2.494,25.865-20.643,58.759-20.643,58.759l10.891-0.904l8.625-18.835   c11.342,0,9.528,17.475,9.528,17.475h2.733h6.115c0-14.411-3.573-20.494-5.78-22.877l1.866-1.893   C174.308,106.221,180.576,103.414,182.358,95.171z M159.418,100.51c2.723-5.445,3.573-13.953,3.573-13.953   c1.361,0,12.252-0.681,12.252,6.977S159.418,100.51,159.418,100.51z M236.16,83.324c0,21.61-13.272,46.283-13.272,46.283   l11.23,0.17c14.464-25.013,13.953-46.453,13.953-46.453H236.16z M207.845,81.505c-5.945-1.244-11.443-1.074-11.443-1.074   c0,1.946-0.34,4.34-0.894,6.971c-3.504,16.729-16.351,44.306-16.351,44.306l9.954-0.739l4.796-11.74   c9.284,0,13.613,10.438,13.613,10.438h9.3c0-8.619-13.612-19.058-13.612-19.058s19.286-1.133,19.286-16.106   C222.494,86.398,214.858,82.962,207.845,81.505z M199.746,102.892c1.191-7.997,3.743-11.74,3.743-11.74s11.741,0.68,11.741,6.125   S199.746,102.892,199.746,102.892z M93.279,67.5c0,13.729-5.444,26.885-5.444,26.885c-2.266,2.275-18.484,1.479-18.484,1.479v-1.59   c3.403-7.487,4.988-29.496,4.988-29.496H59.822c-1.138,44.922-32.219,83.037-32.219,83.037l0.452,0.798   c7.264,0,15.432-2.61,15.432-2.61c5.896-5.897,17.579-29.156,17.579-29.156c10.433-3.743,18.26-2.834,18.26-2.834   c-1.925,10.098-14.633,30.177-14.633,30.177l14.974-2.042c20.137-24.557,24.62-74.646,24.62-74.646H93.279z M146.997,74.135   c0-0.054,0-0.096,0-0.149c-1.829-0.414-7.222-1.552-10.721-1.552c0,0-5.274,49.346-18.717,49.346c-5.105,0-4.732-1.144-3.573-6.806   c1.36-6.637,9.528-23.822,9.528-44.412c0.596,0-2.042-0.51-10.55-0.51c0,0-1.361,22.801-5.785,34.031s-5.275,19.229-5.275,24.673   c0,5.445,2.042,9.358,9.699,9.358c2.01,0.107,3.871-0.17,5.663-0.605c19.499-4.797,26.646-39.552,29.076-57.982   C146.604,77.544,146.837,75.683,146.997,74.135z M383.348,131.99c0-3.574,4.935-14.805,4.935-14.805c2.382,0,13.953,0,13.953,0   s6.211-13.697,5.274-14.633c-0.936-0.936-12.762-1.361-12.762-1.361c0-3.744,9.188-15.654,9.188-15.654h13.443   c2.212-4.766,10.379-15.314,10.379-15.314h-25.523c-26.375,31.649-33.861,77.592-33.861,77.592   c7.486,2.893,19.567,2.893,19.567,2.893c1.702-5.615,9.019-17.866,9.019-17.866L383.348,131.99z M448.008,67.5   c-8.678,0-24.162,16.676-24.162,29.777c0,13.103-0.511,23.652-0.511,29.438s-6.126,11.57-20.249,8.849l-7.827,14.804   c0,0,6.807,3.573,13.103,3.573c9.698,0,27.396-8.679,27.396-23.992c0-17.866,0-27.056,0-35.394s10.209-14.123,17.016-7.316   l6.977-16.165C459.749,71.073,455.835,67.5,448.008,67.5z M357.133,70.914c0.212-1.059,0.351-1.713,0.351-1.713l-1.436,0.277   l-9.114,1.765c-2.925,4.084-5.402,8.316-7.551,12.587c-11.018,21.828-12.741,44.428-12.985,51.76   c-0.053,1.574-0.053,2.525-0.053,2.525c1.616,1.617,10.039,2.553,10.039,2.553c0-0.181,0.011-0.34,0.021-0.516   c0.712-26.221,4.743-33.686,4.743-33.686l4.254,36.584l12.081,3.572c1.872-25.863,34.032-78.272,34.032-78.272H375.01   c-3.914,3.913-22.802,39.477-22.802,39.477c0-9.64,2.638-24.966,4.18-33.106L357.133,70.914z M336.724,72.774   c-11.357,0.862-21.248,7.077-29.469,15.165c-8.881,8.742-15.81,19.664-20.515,28.412c-4.701,8.742-7.189,15.298-7.189,15.298   s-1.872,0,0.681,0.681c2.552,0.681,11.061-0.17,11.061-0.17c1.127-5.147,4.195-11.018,5.731-13.751   c0.543-0.968,0.904-1.563,0.904-1.563c2.956-1.021,11.23,1.021,11.23,1.021c-0.851,6.125-1.021,15.314-1.021,16.505   c0,1.191,10.209,1.021,10.209,1.021c0.309-19.748,6.881-38.35,12.081-50.068C333.874,77.56,336.724,72.774,336.724,72.774z    M314.943,106.295h-12.081c3.914-8.679,16.676-18.548,16.676-18.548l1.648-0.887l0.436-0.07   C319.666,90.173,314.943,106.295,314.943,106.295z M260.152,113.613c0.181-2.318,1.063-4.951,2.414-7.567   c4.988-9.661,16.739-19.052,26.513-11.15l9.104-10.741l1.276-1.51c0,0-3.711-1.373-9.188-1.798   c-8.79-0.681-22.163,1.069-32.33,14.899c-10.604,14.438-9.582,29.373-2.238,34.318c4.083,2.755,10.098,2.457,17.212-2.839   l4.084-10.21C276.998,117.015,259.302,124.502,260.152,113.613z"/>
	<path fill="#FFFFFF" d="M176.913,95.171c0.196-0.914,0.351-1.883,0.425-2.94c1.139-15.427-25.864-16.788-25.864-16.788   c-2.493,25.865-20.642,58.759-20.642,58.759l10.89-0.904l8.625-18.835c11.342,0,9.529,17.475,9.529,17.475h2.732h6.115   c0-14.411-3.573-20.494-5.779-22.877l1.866-1.893C168.862,106.221,175.132,103.414,176.913,95.171z M153.974,100.51   c2.723-5.445,3.573-13.953,3.573-13.953c1.361,0,12.251-0.681,12.251,6.977S153.974,100.51,153.974,100.51z M230.715,83.324   c0,21.61-13.272,46.283-13.272,46.283l11.23,0.17c14.464-25.013,13.953-46.453,13.953-46.453H230.715z M202.399,81.505   c-5.945-1.244-11.443-1.074-11.443-1.074c0,1.946-0.34,4.34-0.894,6.971c-3.504,16.729-16.351,44.306-16.351,44.306l9.954-0.739   l4.796-11.74c9.285,0,13.613,10.438,13.613,10.438h9.3c0-8.619-13.612-19.058-13.612-19.058s19.286-1.133,19.286-16.106   C217.049,86.398,209.413,82.962,202.399,81.505z M194.301,102.892c1.191-7.997,3.743-11.74,3.743-11.74s11.741,0.68,11.741,6.125   S194.301,102.892,194.301,102.892z M87.835,67.5c0,13.729-5.445,26.885-5.445,26.885c-2.266,2.275-18.483,1.479-18.483,1.479v-1.59   c3.403-7.487,4.987-29.496,4.987-29.496H54.377c-1.138,44.922-32.218,83.037-32.218,83.037l0.452,0.798   c7.264,0,15.432-2.61,15.432-2.61c5.896-5.897,17.579-29.156,17.579-29.156c10.434-3.743,18.261-2.834,18.261-2.834   c-1.925,10.098-14.634,30.177-14.634,30.177l14.974-2.042C94.359,117.589,98.842,67.5,98.842,67.5H87.835z M141.552,74.135   c0-0.054,0-0.096,0-0.149c-1.829-0.414-7.222-1.552-10.72-1.552c0,0-5.275,49.346-18.718,49.346c-5.104,0-4.732-1.144-3.573-6.806   c1.361-6.637,9.528-23.822,9.528-44.412c0.596,0-2.042-0.51-10.55-0.51c0,0-1.361,22.801-5.785,34.031s-5.274,19.229-5.274,24.673   c0,5.445,2.041,9.358,9.698,9.358c2.011,0.107,3.871-0.17,5.663-0.605c19.5-4.797,26.646-39.552,29.076-57.982   C141.158,77.544,141.393,75.683,141.552,74.135z M377.902,131.99c0-3.574,4.935-14.805,4.935-14.805c2.383,0,13.953,0,13.953,0   s6.211-13.697,5.275-14.633c-0.937-0.936-12.763-1.361-12.763-1.361c0-3.744,9.188-15.654,9.188-15.654h13.443   c2.212-4.766,10.379-15.314,10.379-15.314H396.79c-26.375,31.649-33.861,77.592-33.861,77.592   c7.486,2.893,19.568,2.893,19.568,2.893c1.701-5.615,9.019-17.866,9.019-17.866L377.902,131.99z M442.562,67.5   c-8.678,0-24.162,16.676-24.162,29.777c0,13.103-0.511,23.652-0.511,29.438s-6.126,11.57-20.249,8.849l-7.827,14.804   c0,0,6.807,3.573,13.103,3.573c9.699,0,27.396-8.679,27.396-23.992c0-17.866,0-27.056,0-35.394s9.848-17.729,16.654-10.922   l7.338-12.56C454.304,71.073,450.391,67.5,442.562,67.5z M351.688,70.914c0.213-1.059,0.351-1.713,0.351-1.713l-1.436,0.277   l-9.114,1.765c-2.925,4.084-5.402,8.316-7.551,12.587c-11.018,21.828-12.74,44.428-12.985,51.76   c-0.053,1.574-0.053,2.525-0.053,2.525c1.616,1.617,10.039,2.553,10.039,2.553c0-0.181,0.011-0.34,0.021-0.516   c0.713-26.221,4.743-33.686,4.743-33.686l4.254,36.584l12.081,3.572c1.872-25.863,34.032-78.272,34.032-78.272h-16.506   c-3.913,3.913-22.801,39.477-22.801,39.477c0-9.64,2.638-24.966,4.18-33.106L351.688,70.914z M331.279,72.774   c-11.358,0.862-21.249,7.077-29.47,15.165c-8.88,8.742-15.809,19.664-20.515,28.412c-4.701,8.742-7.189,15.298-7.189,15.298   s-1.872,0,0.681,0.681s11.061-0.17,11.061-0.17c1.127-5.147,4.195-11.018,5.732-13.751c0.542-0.968,0.903-1.563,0.903-1.563   c2.962-1.021,11.23,1.021,11.23,1.021c-0.851,6.125-1.021,15.314-1.021,16.505c0,1.191,10.209,1.021,10.209,1.021   c0.309-19.748,6.881-38.35,12.082-50.068C328.429,77.56,331.279,72.774,331.279,72.774z M309.499,106.295h-12.082   c3.914-8.679,16.676-18.548,16.676-18.548l1.648-0.887l0.437-0.07C314.221,90.173,309.499,106.295,309.499,106.295z    M254.707,113.613c0.181-2.318,1.063-4.951,2.414-7.567c4.988-9.661,16.74-21.737,26.514-13.836l9.104-8.056l1.275-1.51   c0,0-3.711-1.373-9.188-1.798c-8.789-0.681-22.163,1.069-32.33,14.899c-10.603,14.438-9.582,29.373-2.238,34.318   c4.084,2.755,10.098,2.457,17.213-2.839l1.893-5.978C269.362,121.248,253.856,124.502,254.707,113.613z"/>
	<path fill="#F8D931" d="M182.358,95.171c0.196-0.914,0.351-1.883,0.425-2.94c1.138-15.427-25.864-16.788-25.864-16.788   c-2.494,25.865-20.643,58.759-20.643,58.759l10.891-0.904l8.625-18.835c11.342,0,9.528,17.475,9.528,17.475h2.733h6.115   c0-14.411-3.573-20.494-5.78-22.877l1.866-1.893C174.308,106.221,180.576,103.414,182.358,95.171z M159.418,100.51   c2.723-5.445,3.573-13.953,3.573-13.953c1.361,0,12.252-0.681,12.252,6.977S159.418,100.51,159.418,100.51z M236.16,83.324   c0,21.61-13.272,46.283-13.272,46.283l11.23,0.17c14.464-25.013,13.953-46.453,13.953-46.453H236.16z M207.845,81.505   c-5.945-1.244-11.443-1.074-11.443-1.074c0,1.946-0.34,4.34-0.894,6.971c-3.504,16.729-16.351,44.306-16.351,44.306l9.954-0.739   l4.796-11.74c9.284,0,13.613,10.438,13.613,10.438h9.3c0-8.619-13.612-19.058-13.612-19.058s19.286-1.133,19.286-16.106   C222.494,86.398,214.858,82.962,207.845,81.505z M199.746,102.892c1.191-7.997,3.743-11.74,3.743-11.74s11.741,0.68,11.741,6.125   S199.746,102.892,199.746,102.892z M93.279,67.5c0,13.729-5.444,26.885-5.444,26.885c-2.266,2.275-18.484,1.479-18.484,1.479v-1.59   c3.403-7.487,4.988-29.496,4.988-29.496H59.822c-1.138,44.922-32.219,83.037-32.219,83.037l0.452,0.798   c7.264,0,15.432-2.61,15.432-2.61c5.896-5.897,17.579-29.156,17.579-29.156c10.433-3.743,18.26-2.834,18.26-2.834   c-1.925,10.098-14.633,30.177-14.633,30.177l14.974-2.042c20.137-24.557,24.62-74.646,24.62-74.646H93.279z M146.997,74.135   c0-0.054,0-0.096,0-0.149c-1.829-0.414-7.222-1.552-10.721-1.552c0,0-5.274,49.346-18.717,49.346c-5.105,0-4.732-1.144-3.573-6.806   c1.36-6.637,9.528-23.822,9.528-44.412c0.596,0-2.042-0.51-10.55-0.51c0,0-1.361,22.801-5.785,34.031s-5.275,19.229-5.275,24.673   c0,5.445,2.042,9.358,9.699,9.358c2.01,0.107,3.871-0.17,5.663-0.605c19.499-4.797,26.646-39.552,29.076-57.982   C146.604,77.544,146.837,75.683,146.997,74.135z M383.348,131.99c0-3.574,4.935-14.805,4.935-14.805c2.382,0,13.953,0,13.953,0   s6.211-13.697,5.274-14.633c-0.936-0.936-12.762-1.361-12.762-1.361c0-3.744,9.188-15.654,9.188-15.654h13.443   c2.212-4.766,10.379-15.314,10.379-15.314h-25.523c-26.375,31.649-33.861,77.592-33.861,77.592   c7.486,2.893,19.567,2.893,19.567,2.893c1.702-5.615,9.019-17.866,9.019-17.866L383.348,131.99z M448.008,67.5   c-8.678,0-24.162,16.676-24.162,29.777c0,13.103-0.511,23.652-0.511,29.438s-6.126,11.57-20.249,8.849l-7.827,14.804   c0,0,6.807,3.573,13.103,3.573c9.698,0,27.396-8.679,27.396-23.992c0-17.866,0-27.056,0-35.394s10.209-14.123,17.016-7.316   l6.977-16.165C459.749,71.073,455.835,67.5,448.008,67.5z M357.133,70.914c0.212-1.059,0.351-1.713,0.351-1.713l-1.436,0.277   l-9.114,1.765c-2.925,4.084-5.402,8.316-7.551,12.587c-11.018,21.828-12.741,44.428-12.985,51.76   c-0.053,1.574-0.053,2.525-0.053,2.525c1.616,1.617,10.039,2.553,10.039,2.553c0-0.181,0.011-0.34,0.021-0.516   c0.712-26.221,4.743-33.686,4.743-33.686l4.254,36.584l12.081,3.572c1.872-25.863,34.032-78.272,34.032-78.272H375.01   c-3.914,3.913-22.802,39.477-22.802,39.477c0-9.64,2.638-24.966,4.18-33.106L357.133,70.914z M336.724,72.774   c-11.357,0.862-21.248,7.077-29.469,15.165c-8.881,8.742-15.81,19.664-20.515,28.412c-4.701,8.742-7.189,15.298-7.189,15.298   s-1.872,0,0.681,0.681c2.552,0.681,11.061-0.17,11.061-0.17c1.127-5.147,4.195-11.018,5.731-13.751   c0.543-0.968,0.904-1.563,0.904-1.563c2.956-1.021,11.23,1.021,11.23,1.021c-0.851,6.125-1.021,15.314-1.021,16.505   c0,1.191,10.209,1.021,10.209,1.021c0.309-19.748,6.881-38.35,12.081-50.068C333.874,77.56,336.724,72.774,336.724,72.774z    M314.943,106.295h-12.081c3.914-8.679,16.676-18.548,16.676-18.548l1.648-0.887l0.436-0.07   C319.666,90.173,314.943,106.295,314.943,106.295z M260.152,113.613c0.181-2.318,1.063-4.951,2.414-7.567   c4.988-9.661,16.739-19.052,26.513-11.15l9.104-10.741l1.276-1.51c0,0-3.711-1.373-9.188-1.798   c-8.79-0.681-22.163,1.069-32.33,14.899c-10.604,14.438-9.582,29.373-2.238,34.318c4.083,2.755,10.098,2.457,17.212-2.839   l4.084-10.21C276.998,117.015,259.302,124.502,260.152,113.613z"/>
</g>
<g>
</g>
<g>
</g>
<g>
</g>
<g>
</g>
<g>
</g>
<g>
</g>
<g>
</g>
<g>
</g>
<g>
</g>
<g>
</g>
<g>
</g>
<g>
</g>
</svg>